999
"DXF R12 Output" (www.mydxf.blogspot.com)
 0 
SECTION
 2 
HEADER
 9 
$ACADVER
 1 
AC1009
 9 
$EXTMIN
 10 
 0 
 20 
 0 
 9 
$EXTMAX
 10 
 8.5 
 20 
 11 
 0 
ENDSEC
 0 
SECTION
 2 
ENTITIES
0
LINE
8
Layer 1
10
1.116210
20
3.427880
11
2.697510
21
3.427880
0
LINE
8
Layer 1
10
2.697510
20
3.427880
11
2.697510
21
7.915970
0
LINE
8
Layer 1
10
2.697510
20
7.915970
11
1.074360
21
7.581107
0
LINE
8
Layer 1
10
1.074360
20
7.581107
11
1.074350
21
8.799640
0
LINE
8
Layer 1
10
1.074350
20
8.799640
11
2.688200
21
9.134503
0
LINE
8
Layer 1
10
2.688200
20
9.134503
11
4.390420
21
9.134500
0
LINE
8
Layer 1
10
4.390420
20
9.134500
11
4.390420
21
3.427880
0
LINE
8
Layer 1
10
4.390420
20
3.427880
11
5.971720
21
3.427880
0
LINE
8
Layer 1
10
5.971720
20
3.427880
11
5.971720
21
2.190750
0
LINE
8
Layer 1
10
5.971720
20
2.190750
11
1.116210
21
2.190750
0
LINE
8
Layer 1
10
1.116210
20
2.190750
11
1.116210
21
3.427880
0
LINE
8
Layer 1
10
11.008600
20
5.669600
11
10.946976
21
6.778830
0
LINE
8
Layer 1
10
10.946976
20
6.778830
11
10.762104
21
7.502040
0
LINE
8
Layer 1
10
10.762104
20
7.502040
11
10.436543
21
7.903177
0
LINE
8
Layer 1
10
10.436543
20
7.903177
11
9.943550
21
8.036890
0
LINE
8
Layer 1
10
9.943550
20
8.036890
11
9.449395
21
7.903177
0
LINE
8
Layer 1
10
9.449395
20
7.903177
11
9.120346
21
7.502040
0
LINE
8
Layer 1
10
9.120346
20
7.502040
11
8.935474
21
6.778830
0
LINE
8
Layer 1
10
8.935474
20
6.778830
11
8.873850
21
5.669600
0
LINE
8
Layer 1
10
8.873850
20
5.669600
11
8.935474
21
4.547575
0
LINE
8
Layer 1
10
8.935474
20
4.547575
11
9.120346
21
3.813900
0
LINE
8
Layer 1
10
9.120346
20
3.813900
11
9.449395
21
3.409274
0
LINE
8
Layer 1
10
9.449395
20
3.409274
11
9.943550
21
3.274399
0
LINE
8
Layer 1
10
9.943550
20
3.274399
11
10.434217
21
3.409274
0
LINE
8
Layer 1
10
10.434217
20
3.409274
11
10.762104
21
3.813900
0
LINE
8
Layer 1
10
10.762104
20
3.813900
11
10.946976
21
4.547575
0
LINE
8
Layer 1
10
10.946976
20
4.547575
11
11.008600
21
5.669600
0
LINE
8
Layer 1
10
11.008600
20
5.669600
11
11.008600
21
5.669600
0
LINE
8
Layer 1
10
12.799190
20
5.655646
11
12.613155
21
4.126673
0
LINE
8
Layer 1
10
12.613155
20
4.126673
11
12.055050
21
2.990696
0
LINE
8
Layer 1
10
12.055050
20
2.990696
11
11.155105
21
2.289577
0
LINE
8
Layer 1
10
11.155105
20
2.289577
11
9.943550
21
2.055871
0
LINE
8
Layer 1
10
9.943550
20
2.055871
11
8.728508
21
2.289577
0
LINE
8
Layer 1
10
8.728508
20
2.289577
11
7.827400
21
2.990696
0
LINE
8
Layer 1
10
7.827400
20
2.990696
11
7.269295
21
4.126671
0
LINE
8
Layer 1
10
7.269295
20
4.126671
11
7.083260
21
5.655646
0
LINE
8
Layer 1
10
7.083260
20
5.655646
11
7.269295
21
7.186943
0
LINE
8
Layer 1
10
7.269295
20
7.186943
11
7.827400
21
8.320596
0
LINE
8
Layer 1
10
7.827400
20
8.320596
11
8.728508
21
9.025203
0
LINE
8
Layer 1
10
8.728508
20
9.025203
11
9.943550
21
9.260072
0
LINE
8
Layer 1
10
9.943550
20
9.260072
11
11.155105
21
9.025203
0
LINE
8
Layer 1
10
11.155105
20
9.025203
11
12.055050
21
8.320596
0
LINE
8
Layer 1
10
12.055050
20
8.320596
11
12.613155
21
7.186946
0
LINE
8
Layer 1
10
12.613155
20
7.186946
11
12.799190
21
5.655646
0
LINE
8
Layer 1
10
12.799190
20
5.655646
11
12.799190
21
5.655646
 0 
ENDSEC
 0 
EOF