999
"DXF R12 Output" (www.mydxf.blogspot.com)
 0 
SECTION
 2 
HEADER
 9 
$ACADVER
 1 
AC1009
 9 
$EXTMIN
 10 
 0 
 20 
 0 
 9 
$EXTMAX
 10 
 8.5 
 20 
 11 
 0 
ENDSEC
 0 
SECTION
 2 
ENTITIES
0
LINE
8
Layer 1
10
1.116210
20
13.672500
11
2.697510
21
13.672500
0
LINE
8
Layer 1
10
2.697510
20
13.672500
11
2.697510
21
18.160600
0
LINE
8
Layer 1
10
2.697510
20
18.160600
11
1.074360
21
17.825737
0
LINE
8
Layer 1
10
1.074360
20
17.825737
11
1.074350
21
19.044300
0
LINE
8
Layer 1
10
1.074350
20
19.044300
11
2.688200
21
19.379163
0
LINE
8
Layer 1
10
2.688200
20
19.379163
11
4.390420
21
19.379200
0
LINE
8
Layer 1
10
4.390420
20
19.379200
11
4.390420
21
13.672500
0
LINE
8
Layer 1
10
4.390420
20
13.672500
11
5.971720
21
13.672500
0
LINE
8
Layer 1
10
5.971720
20
13.672500
11
5.971720
21
12.435400
0
LINE
8
Layer 1
10
5.971720
20
12.435400
11
1.116210
21
12.435400
0
LINE
8
Layer 1
10
1.116210
20
12.435400
11
1.116210
21
13.672500
0
LINE
8
Layer 1
10
7.743700
20
13.672500
11
9.325000
21
13.672500
0
LINE
8
Layer 1
10
9.325000
20
13.672500
11
9.325000
21
18.160600
0
LINE
8
Layer 1
10
9.325000
20
18.160600
11
7.701850
21
17.825737
0
LINE
8
Layer 1
10
7.701850
20
17.825737
11
7.701850
21
19.044300
0
LINE
8
Layer 1
10
7.701850
20
19.044300
11
9.315700
21
19.379163
0
LINE
8
Layer 1
10
9.315700
20
19.379163
11
11.017900
21
19.379200
0
LINE
8
Layer 1
10
11.017900
20
19.379200
11
11.017900
21
13.672500
0
LINE
8
Layer 1
10
11.017900
20
13.672500
11
12.599200
21
13.672500
0
LINE
8
Layer 1
10
12.599200
20
13.672500
11
12.599200
21
12.435400
0
LINE
8
Layer 1
10
12.599200
20
12.435400
11
7.743700
21
12.435400
0
LINE
8
Layer 1
10
7.743700
20
12.435400
11
7.743700
21
13.672500
0
LINE
8
Layer 1
10
13.845100
20
3.353800
11
15.426400
21
3.353800
0
LINE
8
Layer 1
10
15.426400
20
3.353800
11
15.426400
21
7.841890
0
LINE
8
Layer 1
10
15.426400
20
7.841890
11
13.803250
21
7.507027
0
LINE
8
Layer 1
10
13.803250
20
7.507027
11
13.803300
21
8.725560
0
LINE
8
Layer 1
10
13.803300
20
8.725560
11
15.417150
21
9.060423
0
LINE
8
Layer 1
10
15.417150
20
9.060423
11
17.119300
21
9.060420
0
LINE
8
Layer 1
10
17.119300
20
9.060420
11
17.119300
21
3.353800
0
LINE
8
Layer 1
10
17.119300
20
3.353800
11
18.700600
21
3.353800
0
LINE
8
Layer 1
10
18.700600
20
3.353800
11
18.700600
21
2.116670
0
LINE
8
Layer 1
10
18.700600
20
2.116670
11
13.845100
21
2.116670
0
LINE
8
Layer 1
10
13.845100
20
2.116670
11
13.845100
21
3.353800
0
LINE
8
Layer 1
10
22.802700
20
5.544360
11
22.391098
21
5.467621
0
LINE
8
Layer 1
10
22.391098
20
5.467621
11
22.095767
21
5.237402
0
LINE
8
Layer 1
10
22.095767
20
5.237402
11
21.921359
21
4.858356
0
LINE
8
Layer 1
10
21.921359
20
4.858356
11
21.863223
21
4.325831
0
LINE
8
Layer 1
10
21.863223
20
4.325831
11
22.095767
21
3.409609
0
LINE
8
Layer 1
10
22.095767
20
3.409609
11
22.391097
21
3.182879
0
LINE
8
Layer 1
10
22.391097
20
3.182879
11
22.802700
21
3.107302
0
LINE
8
Layer 1
10
22.802700
20
3.107302
11
23.216628
21
3.182879
0
LINE
8
Layer 1
10
23.216628
20
3.182879
11
23.509633
21
3.409609
0
LINE
8
Layer 1
10
23.509633
20
3.409609
11
23.687528
21
3.792143
0
LINE
8
Layer 1
10
23.687528
20
3.792143
11
23.746827
21
4.325831
0
LINE
8
Layer 1
10
23.746827
20
4.325831
11
23.687528
21
4.858356
0
LINE
8
Layer 1
10
23.687528
20
4.858356
11
23.509633
21
5.237402
0
LINE
8
Layer 1
10
23.509633
20
5.237402
11
23.216628
21
5.467621
0
LINE
8
Layer 1
10
23.216628
20
5.467621
11
22.802700
21
5.544360
0
LINE
8
Layer 1
10
22.802700
20
5.544360
11
22.802700
21
5.544360
0
LINE
8
Layer 1
10
25.016520
20
8.879040
11
25.016500
21
7.595400
0
LINE
8
Layer 1
10
25.016500
20
7.595400
11
24.183994
21
7.902358
0
LINE
8
Layer 1
10
24.183994
20
7.902358
11
23.421251
21
8.004677
0
LINE
8
Layer 1
10
23.421251
20
8.004677
11
22.709668
21
7.893056
0
LINE
8
Layer 1
10
22.709668
20
7.893056
11
22.174821
21
7.558193
0
LINE
8
Layer 1
10
22.174821
20
7.558193
11
21.821354
21
7.008226
0
LINE
8
Layer 1
10
21.821354
20
7.008226
11
21.653923
21
6.241993
0
LINE
8
Layer 1
10
21.653923
20
6.241993
11
22.318998
21
6.581507
0
LINE
8
Layer 1
10
22.318998
20
6.581507
11
23.100345
21
6.697779
0
LINE
8
Layer 1
10
23.100345
20
6.697779
11
24.061912
21
6.541975
0
LINE
8
Layer 1
10
24.061912
20
6.541975
11
24.816515
21
6.074562
0
LINE
8
Layer 1
10
24.816515
20
6.074562
11
25.308345
21
5.354838
0
LINE
8
Layer 1
10
25.308345
20
5.354838
11
25.472288
21
4.442102
0
LINE
8
Layer 1
10
25.472288
20
4.442102
11
25.289741
21
3.436349
0
LINE
8
Layer 1
10
25.289741
20
3.436349
11
24.742101
21
2.651512
0
LINE
8
Layer 1
10
24.742101
20
2.651512
11
23.887503
21
2.149217
0
LINE
8
Layer 1
10
23.887503
20
2.149217
11
22.784081
21
1.981786
0
LINE
8
Layer 1
10
22.784081
20
1.981786
11
21.582996
21
2.209679
0
LINE
8
Layer 1
10
21.582996
20
2.209679
11
20.686541
21
2.893357
0
LINE
8
Layer 1
10
20.686541
20
2.893357
11
20.131924
21
4.000265
0
LINE
8
Layer 1
10
20.131924
20
4.000265
11
19.947052
21
5.488547
0
LINE
8
Layer 1
10
19.947052
20
5.488547
11
20.163318
21
7.024497
0
LINE
8
Layer 1
10
20.163318
20
7.024497
11
20.812114
21
8.190707
0
LINE
8
Layer 1
10
20.812114
20
8.190707
11
21.842283
21
8.930196
0
LINE
8
Layer 1
10
21.842283
20
8.930196
11
23.193364
21
9.176692
0
LINE
8
Layer 1
10
23.193364
20
9.176692
11
24.123539
21
9.102278
0
LINE
8
Layer 1
10
24.123539
20
9.102278
11
25.016507
21
8.879036
0
LINE
8
Layer 1
10
25.016507
20
8.879036
11
25.016520
21
8.879040
0
LINE
8
Layer 1
10
19.506000
20
18.347500
11
20.067300
21
17.786200
0
LINE
8
Layer 1
10
20.067300
20
17.786200
11
5.100150
21
2.819110
0
LINE
8
Layer 1
10
5.100150
20
2.819110
11
4.538880
21
3.380380
0
LINE
8
Layer 1
10
4.538880
20
3.380380
11
19.506000
21
18.347500
 0 
ENDSEC
 0 
EOF