999
"DXF R12 Output" (www.mydxf.blogspot.com)
 0 
SECTION
 2 
HEADER
 9 
$ACADVER
 1 
AC1009
 9 
$EXTMIN
 10 
 0 
 20 
 0 
 9 
$EXTMAX
 10 
 8.5 
 20 
 11 
 0 
ENDSEC
 0 
SECTION
 2 
ENTITIES
0
LINE
8
Layer 1
10
1.116210
20
13.672500
11
2.697510
21
13.672500
0
LINE
8
Layer 1
10
2.697510
20
13.672500
11
2.697510
21
18.160600
0
LINE
8
Layer 1
10
2.697510
20
18.160600
11
1.074360
21
17.825737
0
LINE
8
Layer 1
10
1.074360
20
17.825737
11
1.074350
21
19.044300
0
LINE
8
Layer 1
10
1.074350
20
19.044300
11
2.688200
21
19.379163
0
LINE
8
Layer 1
10
2.688200
20
19.379163
11
4.390420
21
19.379200
0
LINE
8
Layer 1
10
4.390420
20
19.379200
11
4.390420
21
13.672500
0
LINE
8
Layer 1
10
4.390420
20
13.672500
11
5.971720
21
13.672500
0
LINE
8
Layer 1
10
5.971720
20
13.672500
11
5.971720
21
12.435400
0
LINE
8
Layer 1
10
5.971720
20
12.435400
11
1.116210
21
12.435400
0
LINE
8
Layer 1
10
1.116210
20
12.435400
11
1.116210
21
13.672500
0
LINE
8
Layer 1
10
11.064400
20
16.179400
11
11.681803
21
15.930578
0
LINE
8
Layer 1
10
11.681803
20
15.930578
11
12.129450
21
15.546881
0
LINE
8
Layer 1
10
12.129450
20
15.546881
11
12.405014
21
15.038774
0
LINE
8
Layer 1
10
12.405014
20
15.038774
11
12.496869
21
14.407421
0
LINE
8
Layer 1
10
12.496869
20
14.407421
11
12.299207
21
13.498176
0
LINE
8
Layer 1
10
12.299207
20
13.498176
11
11.706221
21
12.835421
0
LINE
8
Layer 1
10
11.706221
20
12.835421
11
10.734189
21
12.434283
0
LINE
8
Layer 1
10
10.734189
20
12.434283
11
9.399391
21
12.300571
0
LINE
8
Layer 1
10
9.399391
20
12.300571
11
8.325041
21
12.388938
0
LINE
8
Layer 1
10
8.325041
20
12.388938
11
7.264660
21
12.644700
0
LINE
8
Layer 1
10
7.264660
20
12.644700
11
7.264660
21
14.026000
0
LINE
8
Layer 1
10
7.264660
20
14.026000
11
8.259947
21
13.644628
0
LINE
8
Layer 1
10
8.259947
20
13.644628
11
9.236630
21
13.519054
0
LINE
8
Layer 1
10
9.236630
20
13.519054
11
9.864497
21
13.580678
0
LINE
8
Layer 1
10
9.864497
20
13.580678
11
10.324930
21
13.765550
0
LINE
8
Layer 1
10
10.324930
20
13.765550
11
10.610959
21
14.065531
0
LINE
8
Layer 1
10
10.610959
20
14.065531
11
10.706302
21
14.472483
0
LINE
8
Layer 1
10
10.706302
20
14.472483
11
10.608634
21
14.888736
0
LINE
8
Layer 1
10
10.608634
20
14.888736
11
10.315629
21
15.188717
0
LINE
8
Layer 1
10
10.315629
20
15.188717
11
9.836591
21
15.373589
0
LINE
8
Layer 1
10
9.836591
20
15.373589
11
9.171519
21
15.435213
0
LINE
8
Layer 1
10
9.171519
20
15.435213
11
8.455290
21
15.435200
0
LINE
8
Layer 1
10
8.455290
20
15.435200
11
8.455290
21
16.588600
0
LINE
8
Layer 1
10
8.455290
20
16.588600
11
9.208730
21
16.588600
0
LINE
8
Layer 1
10
9.208730
20
16.588600
11
10.213320
21
16.797889
0
LINE
8
Layer 1
10
10.213320
20
16.797889
11
10.460979
21
17.066477
0
LINE
8
Layer 1
10
10.460979
20
17.066477
11
10.543532
21
17.444361
0
LINE
8
Layer 1
10
10.543532
20
17.444361
11
10.463304
21
17.798990
0
LINE
8
Layer 1
10
10.463304
20
17.798990
11
10.222622
21
18.062927
0
LINE
8
Layer 1
10
10.222622
20
18.062927
11
9.315702
21
18.281518
0
LINE
8
Layer 1
10
9.315702
20
18.281518
11
8.441338
21
18.183850
0
LINE
8
Layer 1
10
8.441338
20
18.183850
11
7.562323
21
17.895496
0
LINE
8
Layer 1
10
7.562323
20
17.895496
11
7.562320
21
19.207100
0
LINE
8
Layer 1
10
7.562320
20
19.207100
11
8.613420
21
19.430342
0
LINE
8
Layer 1
10
8.613420
20
19.430342
11
9.636610
21
19.504756
0
LINE
8
Layer 1
10
9.636610
20
19.504756
11
10.819093
21
19.393135
0
LINE
8
Layer 1
10
10.819093
20
19.393135
11
11.659740
21
19.058272
0
LINE
8
Layer 1
10
11.659740
20
19.058272
11
12.165523
21
18.503656
0
LINE
8
Layer 1
10
12.165523
20
18.503656
11
12.334117
21
17.723472
0
LINE
8
Layer 1
10
12.334117
20
17.723472
11
12.253889
21
17.168855
0
LINE
8
Layer 1
10
12.253889
20
17.168855
11
12.013207
21
16.723534
0
LINE
8
Layer 1
10
12.013207
20
16.723534
11
11.615557
21
16.394485
0
LINE
8
Layer 1
10
11.615557
20
16.394485
11
11.064429
21
16.179382
0
LINE
8
Layer 1
10
11.064429
20
16.179382
11
11.064400
21
16.179400
0
LINE
8
Layer 1
10
13.845100
20
3.353800
11
15.426400
21
3.353800
0
LINE
8
Layer 1
10
15.426400
20
3.353800
11
15.426400
21
7.841890
0
LINE
8
Layer 1
10
15.426400
20
7.841890
11
13.803250
21
7.507027
0
LINE
8
Layer 1
10
13.803250
20
7.507027
11
13.803300
21
8.725560
0
LINE
8
Layer 1
10
13.803300
20
8.725560
11
15.417150
21
9.060423
0
LINE
8
Layer 1
10
15.417150
20
9.060423
11
17.119300
21
9.060420
0
LINE
8
Layer 1
10
17.119300
20
9.060420
11
17.119300
21
3.353800
0
LINE
8
Layer 1
10
17.119300
20
3.353800
11
18.700600
21
3.353800
0
LINE
8
Layer 1
10
18.700600
20
3.353800
11
18.700600
21
2.116670
0
LINE
8
Layer 1
10
18.700600
20
2.116670
11
13.845100
21
2.116670
0
LINE
8
Layer 1
10
13.845100
20
2.116670
11
13.845100
21
3.353800
0
LINE
8
Layer 1
10
22.802700
20
5.544360
11
22.391098
21
5.467621
0
LINE
8
Layer 1
10
22.391098
20
5.467621
11
22.095767
21
5.237402
0
LINE
8
Layer 1
10
22.095767
20
5.237402
11
21.921359
21
4.858356
0
LINE
8
Layer 1
10
21.921359
20
4.858356
11
21.863223
21
4.325831
0
LINE
8
Layer 1
10
21.863223
20
4.325831
11
22.095767
21
3.409609
0
LINE
8
Layer 1
10
22.095767
20
3.409609
11
22.391097
21
3.182879
0
LINE
8
Layer 1
10
22.391097
20
3.182879
11
22.802700
21
3.107302
0
LINE
8
Layer 1
10
22.802700
20
3.107302
11
23.216628
21
3.182879
0
LINE
8
Layer 1
10
23.216628
20
3.182879
11
23.509633
21
3.409609
0
LINE
8
Layer 1
10
23.509633
20
3.409609
11
23.687528
21
3.792143
0
LINE
8
Layer 1
10
23.687528
20
3.792143
11
23.746827
21
4.325831
0
LINE
8
Layer 1
10
23.746827
20
4.325831
11
23.687528
21
4.858356
0
LINE
8
Layer 1
10
23.687528
20
4.858356
11
23.509633
21
5.237402
0
LINE
8
Layer 1
10
23.509633
20
5.237402
11
23.216628
21
5.467621
0
LINE
8
Layer 1
10
23.216628
20
5.467621
11
22.802700
21
5.544360
0
LINE
8
Layer 1
10
22.802700
20
5.544360
11
22.802700
21
5.544360
0
LINE
8
Layer 1
10
25.016520
20
8.879040
11
25.016500
21
7.595400
0
LINE
8
Layer 1
10
25.016500
20
7.595400
11
24.183994
21
7.902358
0
LINE
8
Layer 1
10
24.183994
20
7.902358
11
23.421251
21
8.004677
0
LINE
8
Layer 1
10
23.421251
20
8.004677
11
22.709668
21
7.893056
0
LINE
8
Layer 1
10
22.709668
20
7.893056
11
22.174821
21
7.558193
0
LINE
8
Layer 1
10
22.174821
20
7.558193
11
21.821354
21
7.008226
0
LINE
8
Layer 1
10
21.821354
20
7.008226
11
21.653923
21
6.241993
0
LINE
8
Layer 1
10
21.653923
20
6.241993
11
22.318998
21
6.581507
0
LINE
8
Layer 1
10
22.318998
20
6.581507
11
23.100345
21
6.697779
0
LINE
8
Layer 1
10
23.100345
20
6.697779
11
24.061912
21
6.541975
0
LINE
8
Layer 1
10
24.061912
20
6.541975
11
24.816515
21
6.074562
0
LINE
8
Layer 1
10
24.816515
20
6.074562
11
25.308345
21
5.354838
0
LINE
8
Layer 1
10
25.308345
20
5.354838
11
25.472288
21
4.442102
0
LINE
8
Layer 1
10
25.472288
20
4.442102
11
25.289741
21
3.436349
0
LINE
8
Layer 1
10
25.289741
20
3.436349
11
24.742101
21
2.651512
0
LINE
8
Layer 1
10
24.742101
20
2.651512
11
23.887503
21
2.149217
0
LINE
8
Layer 1
10
23.887503
20
2.149217
11
22.784081
21
1.981786
0
LINE
8
Layer 1
10
22.784081
20
1.981786
11
21.582996
21
2.209679
0
LINE
8
Layer 1
10
21.582996
20
2.209679
11
20.686541
21
2.893357
0
LINE
8
Layer 1
10
20.686541
20
2.893357
11
20.131924
21
4.000265
0
LINE
8
Layer 1
10
20.131924
20
4.000265
11
19.947052
21
5.488547
0
LINE
8
Layer 1
10
19.947052
20
5.488547
11
20.163318
21
7.024497
0
LINE
8
Layer 1
10
20.163318
20
7.024497
11
20.812114
21
8.190707
0
LINE
8
Layer 1
10
20.812114
20
8.190707
11
21.842283
21
8.930196
0
LINE
8
Layer 1
10
21.842283
20
8.930196
11
23.193364
21
9.176692
0
LINE
8
Layer 1
10
23.193364
20
9.176692
11
24.123539
21
9.102278
0
LINE
8
Layer 1
10
24.123539
20
9.102278
11
25.016507
21
8.879036
0
LINE
8
Layer 1
10
25.016507
20
8.879036
11
25.016520
21
8.879040
0
LINE
8
Layer 1
10
19.506000
20
18.347500
11
20.067300
21
17.786200
0
LINE
8
Layer 1
10
20.067300
20
17.786200
11
5.100150
21
2.819110
0
LINE
8
Layer 1
10
5.100150
20
2.819110
11
4.538880
21
3.380380
0
LINE
8
Layer 1
10
4.538880
20
3.380380
11
19.506000
21
18.347500
 0 
ENDSEC
 0 
EOF