999
"DXF R12 Output" (www.mydxf.blogspot.com)
 0 
SECTION
 2 
HEADER
 9 
$ACADVER
 1 
AC1009
 9 
$EXTMIN
 10 
 0 
 20 
 0 
 9 
$EXTMAX
 10 
 8.5 
 20 
 11 
 0 
ENDSEC
 0 
SECTION
 2 
ENTITIES
0
LINE
8
Layer 1
10
1.116210
20
13.672500
11
2.697510
21
13.672500
0
LINE
8
Layer 1
10
2.697510
20
13.672500
11
2.697510
21
18.160600
0
LINE
8
Layer 1
10
2.697510
20
18.160600
11
1.074360
21
17.825737
0
LINE
8
Layer 1
10
1.074360
20
17.825737
11
1.074350
21
19.044300
0
LINE
8
Layer 1
10
1.074350
20
19.044300
11
2.688200
21
19.379163
0
LINE
8
Layer 1
10
2.688200
20
19.379163
11
4.390420
21
19.379200
0
LINE
8
Layer 1
10
4.390420
20
19.379200
11
4.390420
21
13.672500
0
LINE
8
Layer 1
10
4.390420
20
13.672500
11
5.971720
21
13.672500
0
LINE
8
Layer 1
10
5.971720
20
13.672500
11
5.971720
21
12.435400
0
LINE
8
Layer 1
10
5.971720
20
12.435400
11
1.116210
21
12.435400
0
LINE
8
Layer 1
10
1.116210
20
12.435400
11
1.116210
21
13.672500
0
LINE
8
Layer 1
10
11.064400
20
16.179400
11
11.681803
21
15.930578
0
LINE
8
Layer 1
10
11.681803
20
15.930578
11
12.129450
21
15.546881
0
LINE
8
Layer 1
10
12.129450
20
15.546881
11
12.405014
21
15.038774
0
LINE
8
Layer 1
10
12.405014
20
15.038774
11
12.496869
21
14.407421
0
LINE
8
Layer 1
10
12.496869
20
14.407421
11
12.299207
21
13.498176
0
LINE
8
Layer 1
10
12.299207
20
13.498176
11
11.706221
21
12.835421
0
LINE
8
Layer 1
10
11.706221
20
12.835421
11
10.734189
21
12.434283
0
LINE
8
Layer 1
10
10.734189
20
12.434283
11
9.399391
21
12.300571
0
LINE
8
Layer 1
10
9.399391
20
12.300571
11
8.325041
21
12.388938
0
LINE
8
Layer 1
10
8.325041
20
12.388938
11
7.264660
21
12.644700
0
LINE
8
Layer 1
10
7.264660
20
12.644700
11
7.264660
21
14.026000
0
LINE
8
Layer 1
10
7.264660
20
14.026000
11
8.259947
21
13.644628
0
LINE
8
Layer 1
10
8.259947
20
13.644628
11
9.236630
21
13.519054
0
LINE
8
Layer 1
10
9.236630
20
13.519054
11
9.864497
21
13.580678
0
LINE
8
Layer 1
10
9.864497
20
13.580678
11
10.324930
21
13.765550
0
LINE
8
Layer 1
10
10.324930
20
13.765550
11
10.610959
21
14.065531
0
LINE
8
Layer 1
10
10.610959
20
14.065531
11
10.706302
21
14.472483
0
LINE
8
Layer 1
10
10.706302
20
14.472483
11
10.608634
21
14.888736
0
LINE
8
Layer 1
10
10.608634
20
14.888736
11
10.315629
21
15.188717
0
LINE
8
Layer 1
10
10.315629
20
15.188717
11
9.836591
21
15.373589
0
LINE
8
Layer 1
10
9.836591
20
15.373589
11
9.171519
21
15.435213
0
LINE
8
Layer 1
10
9.171519
20
15.435213
11
8.455290
21
15.435200
0
LINE
8
Layer 1
10
8.455290
20
15.435200
11
8.455290
21
16.588600
0
LINE
8
Layer 1
10
8.455290
20
16.588600
11
9.208730
21
16.588600
0
LINE
8
Layer 1
10
9.208730
20
16.588600
11
10.213320
21
16.797889
0
LINE
8
Layer 1
10
10.213320
20
16.797889
11
10.460979
21
17.066477
0
LINE
8
Layer 1
10
10.460979
20
17.066477
11
10.543532
21
17.444361
0
LINE
8
Layer 1
10
10.543532
20
17.444361
11
10.463304
21
17.798990
0
LINE
8
Layer 1
10
10.463304
20
17.798990
11
10.222622
21
18.062927
0
LINE
8
Layer 1
10
10.222622
20
18.062927
11
9.315702
21
18.281518
0
LINE
8
Layer 1
10
9.315702
20
18.281518
11
8.441338
21
18.183850
0
LINE
8
Layer 1
10
8.441338
20
18.183850
11
7.562323
21
17.895496
0
LINE
8
Layer 1
10
7.562323
20
17.895496
11
7.562320
21
19.207100
0
LINE
8
Layer 1
10
7.562320
20
19.207100
11
8.613420
21
19.430342
0
LINE
8
Layer 1
10
8.613420
20
19.430342
11
9.636610
21
19.504756
0
LINE
8
Layer 1
10
9.636610
20
19.504756
11
10.819093
21
19.393135
0
LINE
8
Layer 1
10
10.819093
20
19.393135
11
11.659740
21
19.058272
0
LINE
8
Layer 1
10
11.659740
20
19.058272
11
12.165523
21
18.503656
0
LINE
8
Layer 1
10
12.165523
20
18.503656
11
12.334117
21
17.723472
0
LINE
8
Layer 1
10
12.334117
20
17.723472
11
12.253889
21
17.168855
0
LINE
8
Layer 1
10
12.253889
20
17.168855
11
12.013207
21
16.723534
0
LINE
8
Layer 1
10
12.013207
20
16.723534
11
11.615557
21
16.394485
0
LINE
8
Layer 1
10
11.615557
20
16.394485
11
11.064429
21
16.179382
0
LINE
8
Layer 1
10
11.064429
20
16.179382
11
11.064400
21
16.179400
0
LINE
8
Layer 1
10
17.165800
20
5.860620
11
17.783203
21
5.611798
0
LINE
8
Layer 1
10
17.783203
20
5.611798
11
18.230850
21
5.228101
0
LINE
8
Layer 1
10
18.230850
20
5.228101
11
18.506414
21
4.719994
0
LINE
8
Layer 1
10
18.506414
20
4.719994
11
18.598269
21
4.088641
0
LINE
8
Layer 1
10
18.598269
20
4.088641
11
18.400607
21
3.179396
0
LINE
8
Layer 1
10
18.400607
20
3.179396
11
17.807620
21
2.516641
0
LINE
8
Layer 1
10
17.807620
20
2.516641
11
16.835589
21
2.115503
0
LINE
8
Layer 1
10
16.835589
20
2.115503
11
15.500790
21
1.981791
0
LINE
8
Layer 1
10
15.500790
20
1.981791
11
14.426440
21
2.070158
0
LINE
8
Layer 1
10
14.426440
20
2.070158
11
13.366100
21
2.325960
0
LINE
8
Layer 1
10
13.366100
20
2.325960
11
13.366100
21
3.707270
0
LINE
8
Layer 1
10
13.366100
20
3.707270
11
14.361387
21
3.325898
0
LINE
8
Layer 1
10
14.361387
20
3.325898
11
15.338070
21
3.200324
0
LINE
8
Layer 1
10
15.338070
20
3.200324
11
15.965937
21
3.261948
0
LINE
8
Layer 1
10
15.965937
20
3.261948
11
16.426370
21
3.446820
0
LINE
8
Layer 1
10
16.426370
20
3.446820
11
16.712399
21
3.746801
0
LINE
8
Layer 1
10
16.712399
20
3.746801
11
16.807742
21
4.153753
0
LINE
8
Layer 1
10
16.807742
20
4.153753
11
16.710074
21
4.570006
0
LINE
8
Layer 1
10
16.710074
20
4.570006
11
16.417069
21
4.869987
0
LINE
8
Layer 1
10
16.417069
20
4.869987
11
15.938030
21
5.054859
0
LINE
8
Layer 1
10
15.938030
20
5.054859
11
15.272959
21
5.116483
0
LINE
8
Layer 1
10
15.272959
20
5.116483
11
14.556700
21
5.116480
0
LINE
8
Layer 1
10
14.556700
20
5.116480
11
14.556700
21
6.269900
0
LINE
8
Layer 1
10
14.556700
20
6.269900
11
15.310100
21
6.269900
0
LINE
8
Layer 1
10
15.310100
20
6.269900
11
16.314690
21
6.479189
0
LINE
8
Layer 1
10
16.314690
20
6.479189
11
16.562349
21
6.747777
0
LINE
8
Layer 1
10
16.562349
20
6.747777
11
16.644902
21
7.125661
0
LINE
8
Layer 1
10
16.644902
20
7.125661
11
16.564674
21
7.480290
0
LINE
8
Layer 1
10
16.564674
20
7.480290
11
16.323992
21
7.744227
0
LINE
8
Layer 1
10
16.323992
20
7.744227
11
15.417072
21
7.962818
0
LINE
8
Layer 1
10
15.417072
20
7.962818
11
14.542708
21
7.865150
0
LINE
8
Layer 1
10
14.542708
20
7.865150
11
13.663693
21
7.576796
0
LINE
8
Layer 1
10
13.663693
20
7.576796
11
13.663700
21
8.888340
0
LINE
8
Layer 1
10
13.663700
20
8.888340
11
14.714800
21
9.111582
0
LINE
8
Layer 1
10
14.714800
20
9.111582
11
15.737990
21
9.185996
0
LINE
8
Layer 1
10
15.737990
20
9.185996
11
16.920472
21
9.074375
0
LINE
8
Layer 1
10
16.920472
20
9.074375
11
17.761120
21
8.739512
0
LINE
8
Layer 1
10
17.761120
20
8.739512
11
18.266903
21
8.184895
0
LINE
8
Layer 1
10
18.266903
20
8.184895
11
18.435497
21
7.404712
0
LINE
8
Layer 1
10
18.435497
20
7.404712
11
18.355269
21
6.850096
0
LINE
8
Layer 1
10
18.355269
20
6.850096
11
18.114587
21
6.404774
0
LINE
8
Layer 1
10
18.114587
20
6.404774
11
17.716937
21
6.075725
0
LINE
8
Layer 1
10
17.716937
20
6.075725
11
17.165809
21
5.860622
0
LINE
8
Layer 1
10
17.165809
20
5.860622
11
17.165800
21
5.860620
0
LINE
8
Layer 1
10
22.100400
20
3.432870
11
25.156000
21
3.432870
0
LINE
8
Layer 1
10
25.156000
20
3.432870
11
25.156000
21
2.116670
0
LINE
8
Layer 1
10
25.156000
20
2.116670
11
20.109800
21
2.116670
0
LINE
8
Layer 1
10
20.109800
20
2.116670
11
20.109800
21
3.432870
0
LINE
8
Layer 1
10
20.109800
20
3.432870
11
22.644530
21
5.669940
0
LINE
8
Layer 1
10
22.644530
20
5.669940
11
23.146824
21
6.269903
0
LINE
8
Layer 1
10
23.146824
20
6.269903
11
23.309604
21
6.879167
0
LINE
8
Layer 1
10
23.309604
20
6.879167
11
23.227051
21
7.319838
0
LINE
8
Layer 1
10
23.227051
20
7.319838
11
22.979392
21
7.665165
0
LINE
8
Layer 1
10
22.979392
20
7.665165
11
22.599183
21
7.888407
0
LINE
8
Layer 1
10
22.599183
20
7.888407
11
22.109679
21
7.962821
0
LINE
8
Layer 1
10
22.109679
20
7.962821
11
21.193457
21
7.781437
0
LINE
8
Layer 1
10
21.193457
20
7.781437
11
20.128407
21
7.251238
0
LINE
8
Layer 1
10
20.128407
20
7.251238
11
20.128400
21
8.776720
0
LINE
8
Layer 1
10
20.128400
20
8.776720
11
21.323670
21
9.079027
0
LINE
8
Layer 1
10
21.323670
20
9.079027
11
22.481740
21
9.185997
0
LINE
8
Layer 1
10
22.481740
20
9.185997
11
23.588645
21
9.048796
0
LINE
8
Layer 1
10
23.588645
20
9.048796
11
24.416500
21
8.637194
0
LINE
8
Layer 1
10
24.416500
20
8.637194
11
24.936235
21
7.980258
0
LINE
8
Layer 1
10
24.936235
20
7.980258
11
25.109480
21
7.107054
0
LINE
8
Layer 1
10
25.109480
20
7.107054
11
25.036229
21
6.558251
0
LINE
8
Layer 1
10
25.036229
20
6.558251
11
24.816475
21
6.046654
0
LINE
8
Layer 1
10
24.816475
20
6.046654
11
23.583995
21
4.735104
0
LINE
8
Layer 1
10
23.583995
20
4.735104
11
22.100400
21
3.432870
0
LINE
8
Layer 1
10
19.506000
20
18.347500
11
20.067300
21
17.786200
0
LINE
8
Layer 1
10
20.067300
20
17.786200
11
5.100150
21
2.819110
0
LINE
8
Layer 1
10
5.100150
20
2.819110
11
4.538880
21
3.380380
0
LINE
8
Layer 1
10
4.538880
20
3.380380
11
19.506000
21
18.347500
 0 
ENDSEC
 0 
EOF