999
"DXF R12 Output" (www.mydxf.blogspot.com)
 0 
SECTION
 2 
HEADER
 9 
$ACADVER
 1 
AC1009
 9 
$EXTMIN
 10 
 0 
 20 
 0 
 9 
$EXTMAX
 10 
 8.5 
 20 
 11 
 0 
ENDSEC
 0 
SECTION
 2 
ENTITIES
0
LINE
8
Layer 1
10
1.116210
20
3.427880
11
2.697510
21
3.427880
0
LINE
8
Layer 1
10
2.697510
20
3.427880
11
2.697510
21
7.915970
0
LINE
8
Layer 1
10
2.697510
20
7.915970
11
1.074360
21
7.581107
0
LINE
8
Layer 1
10
1.074360
20
7.581107
11
1.074350
21
8.799640
0
LINE
8
Layer 1
10
1.074350
20
8.799640
11
2.688200
21
9.134503
0
LINE
8
Layer 1
10
2.688200
20
9.134503
11
4.390420
21
9.134500
0
LINE
8
Layer 1
10
4.390420
20
9.134500
11
4.390420
21
3.427880
0
LINE
8
Layer 1
10
4.390420
20
3.427880
11
5.971720
21
3.427880
0
LINE
8
Layer 1
10
5.971720
20
3.427880
11
5.971720
21
2.190750
0
LINE
8
Layer 1
10
5.971720
20
2.190750
11
1.116210
21
2.190750
0
LINE
8
Layer 1
10
1.116210
20
2.190750
11
1.116210
21
3.427880
0
LINE
8
Layer 1
10
11.064400
20
5.934700
11
11.681803
21
5.685878
0
LINE
8
Layer 1
10
11.681803
20
5.685878
11
12.129450
21
5.302181
0
LINE
8
Layer 1
10
12.129450
20
5.302181
11
12.405014
21
4.794074
0
LINE
8
Layer 1
10
12.405014
20
4.794074
11
12.496869
21
4.162721
0
LINE
8
Layer 1
10
12.496869
20
4.162721
11
12.299207
21
3.253476
0
LINE
8
Layer 1
10
12.299207
20
3.253476
11
11.706221
21
2.590721
0
LINE
8
Layer 1
10
11.706221
20
2.590721
11
10.734189
21
2.189583
0
LINE
8
Layer 1
10
10.734189
20
2.189583
11
9.399391
21
2.055871
0
LINE
8
Layer 1
10
9.399391
20
2.055871
11
8.325041
21
2.144238
0
LINE
8
Layer 1
10
8.325041
20
2.144238
11
7.264660
21
2.400040
0
LINE
8
Layer 1
10
7.264660
20
2.400040
11
7.264660
21
3.781350
0
LINE
8
Layer 1
10
7.264660
20
3.781350
11
8.259947
21
3.399978
0
LINE
8
Layer 1
10
8.259947
20
3.399978
11
9.236630
21
3.274404
0
LINE
8
Layer 1
10
9.236630
20
3.274404
11
9.864497
21
3.336028
0
LINE
8
Layer 1
10
9.864497
20
3.336028
11
10.324930
21
3.520900
0
LINE
8
Layer 1
10
10.324930
20
3.520900
11
10.610959
21
3.820881
0
LINE
8
Layer 1
10
10.610959
20
3.820881
11
10.706302
21
4.227833
0
LINE
8
Layer 1
10
10.706302
20
4.227833
11
10.608634
21
4.644086
0
LINE
8
Layer 1
10
10.608634
20
4.644086
11
10.315629
21
4.944067
0
LINE
8
Layer 1
10
10.315629
20
4.944067
11
9.836591
21
5.128939
0
LINE
8
Layer 1
10
9.836591
20
5.128939
11
9.171519
21
5.190563
0
LINE
8
Layer 1
10
9.171519
20
5.190563
11
8.455290
21
5.190560
0
LINE
8
Layer 1
10
8.455290
20
5.190560
11
8.455290
21
6.343980
0
LINE
8
Layer 1
10
8.455290
20
6.343980
11
9.208730
21
6.343980
0
LINE
8
Layer 1
10
9.208730
20
6.343980
11
10.213320
21
6.553269
0
LINE
8
Layer 1
10
10.213320
20
6.553269
11
10.460979
21
6.821857
0
LINE
8
Layer 1
10
10.460979
20
6.821857
11
10.543532
21
7.199741
0
LINE
8
Layer 1
10
10.543532
20
7.199741
11
10.463304
21
7.554370
0
LINE
8
Layer 1
10
10.463304
20
7.554370
11
10.222622
21
7.818307
0
LINE
8
Layer 1
10
10.222622
20
7.818307
11
9.315702
21
8.036898
0
LINE
8
Layer 1
10
9.315702
20
8.036898
11
8.441338
21
7.939230
0
LINE
8
Layer 1
10
8.441338
20
7.939230
11
7.562323
21
7.650876
0
LINE
8
Layer 1
10
7.562323
20
7.650876
11
7.562320
21
8.962420
0
LINE
8
Layer 1
10
7.562320
20
8.962420
11
8.613420
21
9.185662
0
LINE
8
Layer 1
10
8.613420
20
9.185662
11
9.636610
21
9.260076
0
LINE
8
Layer 1
10
9.636610
20
9.260076
11
10.819093
21
9.148455
0
LINE
8
Layer 1
10
10.819093
20
9.148455
11
11.659740
21
8.813592
0
LINE
8
Layer 1
10
11.659740
20
8.813592
11
12.165523
21
8.258976
0
LINE
8
Layer 1
10
12.165523
20
8.258976
11
12.334117
21
7.478792
0
LINE
8
Layer 1
10
12.334117
20
7.478792
11
12.253889
21
6.924176
0
LINE
8
Layer 1
10
12.253889
20
6.924176
11
12.013207
21
6.478854
0
LINE
8
Layer 1
10
12.013207
20
6.478854
11
11.615557
21
6.149805
0
LINE
8
Layer 1
10
11.615557
20
6.149805
11
11.064429
21
5.934702
0
LINE
8
Layer 1
10
11.064429
20
5.934702
11
11.064400
21
5.934700
 0 
ENDSEC
 0 
EOF