999
"DXF R12 Output" (www.mydxf.blogspot.com)
 0 
SECTION
 2 
HEADER
 9 
$ACADVER
 1 
AC1009
 9 
$EXTMIN
 10 
 0 
 20 
 0 
 9 
$EXTMAX
 10 
 8.5 
 20 
 11 
 0 
ENDSEC
 0 
SECTION
 2 
ENTITIES
0
LINE
8
Layer 1
10
1.116210
20
3.427880
11
2.697510
21
3.427880
0
LINE
8
Layer 1
10
2.697510
20
3.427880
11
2.697510
21
7.915970
0
LINE
8
Layer 1
10
2.697510
20
7.915970
11
1.074360
21
7.581107
0
LINE
8
Layer 1
10
1.074360
20
7.581107
11
1.074350
21
8.799640
0
LINE
8
Layer 1
10
1.074350
20
8.799640
11
2.688200
21
9.134503
0
LINE
8
Layer 1
10
2.688200
20
9.134503
11
4.390420
21
9.134500
0
LINE
8
Layer 1
10
4.390420
20
9.134500
11
4.390420
21
3.427880
0
LINE
8
Layer 1
10
4.390420
20
3.427880
11
5.971720
21
3.427880
0
LINE
8
Layer 1
10
5.971720
20
3.427880
11
5.971720
21
2.190750
0
LINE
8
Layer 1
10
5.971720
20
2.190750
11
1.116210
21
2.190750
0
LINE
8
Layer 1
10
1.116210
20
2.190750
11
1.116210
21
3.427880
0
LINE
8
Layer 1
10
7.636730
20
9.134500
11
12.087600
21
9.134500
0
LINE
8
Layer 1
10
12.087600
20
9.134500
11
12.087600
21
7.818310
0
LINE
8
Layer 1
10
12.087600
20
7.818310
11
9.064550
21
7.818310
0
LINE
8
Layer 1
10
9.064550
20
7.818310
11
9.064550
21
6.743950
0
LINE
8
Layer 1
10
9.064550
20
6.743950
11
9.473827
21
6.827666
0
LINE
8
Layer 1
10
9.473827
20
6.827666
11
9.906358
21
6.860222
0
LINE
8
Layer 1
10
9.906358
20
6.860222
11
11.035358
21
6.700929
0
LINE
8
Layer 1
10
11.035358
20
6.700929
11
11.882978
21
6.223052
0
LINE
8
Layer 1
10
11.882978
20
6.223052
11
12.413178
21
5.464960
0
LINE
8
Layer 1
10
12.413178
20
5.464960
11
12.589911
21
4.455722
0
LINE
8
Layer 1
10
12.589911
20
4.455722
11
12.396900
21
3.452297
0
LINE
8
Layer 1
10
12.396900
20
3.452297
11
11.817866
21
2.693042
0
LINE
8
Layer 1
10
11.817866
20
2.693042
11
10.900481
21
2.215164
0
LINE
8
Layer 1
10
10.900481
20
2.215164
11
9.683116
21
2.055872
0
LINE
8
Layer 1
10
9.683116
20
2.055872
11
8.511096
21
2.172144
0
LINE
8
Layer 1
10
8.511096
20
2.172144
11
7.362326
21
2.516309
0
LINE
8
Layer 1
10
7.362326
20
2.516309
11
7.362330
21
3.925530
0
LINE
8
Layer 1
10
7.362330
20
3.925530
11
8.436680
21
3.437188
0
LINE
8
Layer 1
10
8.436680
20
3.437188
11
9.399411
21
3.274407
0
LINE
8
Layer 1
10
9.399411
20
3.274407
11
9.980769
21
3.353472
0
LINE
8
Layer 1
10
9.980769
20
3.353472
11
10.422601
21
3.590666
0
LINE
8
Layer 1
10
10.422601
20
3.590666
11
10.705142
21
3.967386
0
LINE
8
Layer 1
10
10.705142
20
3.967386
11
10.799322
21
4.455728
0
LINE
8
Layer 1
10
10.799322
20
4.455728
11
10.705142
21
4.946395
0
LINE
8
Layer 1
10
10.705142
20
4.946395
11
10.422601
21
5.320790
0
LINE
8
Layer 1
10
10.422601
20
5.320790
11
9.980768
21
5.557984
0
LINE
8
Layer 1
10
9.980768
20
5.557984
11
9.399411
21
5.637049
0
LINE
8
Layer 1
10
9.399411
20
5.637049
11
8.576206
21
5.534730
0
LINE
8
Layer 1
10
8.576206
20
5.534730
11
7.636730
21
5.227772
0
LINE
8
Layer 1
10
7.636730
20
5.227772
11
7.636730
21
9.134500
 0 
ENDSEC
 0 
EOF