999
"DXF R12 Output" (www.mydxf.blogspot.com)
 0 
SECTION
 2 
HEADER
 9 
$ACADVER
 1 
AC1009
 9 
$EXTMIN
 10 
 0 
 20 
 0 
 9 
$EXTMAX
 10 
 8.5 
 20 
 11 
 0 
ENDSEC
 0 
SECTION
 2 
ENTITIES
0
LINE
8
Layer 1
10
1.116210
20
3.427880
11
2.697510
21
3.427880
0
LINE
8
Layer 1
10
2.697510
20
3.427880
11
2.697510
21
7.915970
0
LINE
8
Layer 1
10
2.697510
20
7.915970
11
1.074360
21
7.581107
0
LINE
8
Layer 1
10
1.074360
20
7.581107
11
1.074350
21
8.799640
0
LINE
8
Layer 1
10
1.074350
20
8.799640
11
2.688200
21
9.134503
0
LINE
8
Layer 1
10
2.688200
20
9.134503
11
4.390420
21
9.134500
0
LINE
8
Layer 1
10
4.390420
20
9.134500
11
4.390420
21
3.427880
0
LINE
8
Layer 1
10
4.390420
20
3.427880
11
5.971720
21
3.427880
0
LINE
8
Layer 1
10
5.971720
20
3.427880
11
5.971720
21
2.190750
0
LINE
8
Layer 1
10
5.971720
20
2.190750
11
1.116210
21
2.190750
0
LINE
8
Layer 1
10
1.116210
20
2.190750
11
1.116210
21
3.427880
0
LINE
8
Layer 1
10
10.073800
20
5.618440
11
9.662198
21
5.541700
0
LINE
8
Layer 1
10
9.662198
20
5.541700
11
9.366867
21
5.311482
0
LINE
8
Layer 1
10
9.366867
20
5.311482
11
9.192459
21
4.932436
0
LINE
8
Layer 1
10
9.192459
20
4.932436
11
9.134323
21
4.399911
0
LINE
8
Layer 1
10
9.134323
20
4.399911
11
9.366867
21
3.483689
0
LINE
8
Layer 1
10
9.366867
20
3.483689
11
9.662197
21
3.256959
0
LINE
8
Layer 1
10
9.662197
20
3.256959
11
10.073800
21
3.181382
0
LINE
8
Layer 1
10
10.073800
20
3.181382
11
10.487728
21
3.256959
0
LINE
8
Layer 1
10
10.487728
20
3.256959
11
10.780733
21
3.483689
0
LINE
8
Layer 1
10
10.780733
20
3.483689
11
10.958628
21
3.866223
0
LINE
8
Layer 1
10
10.958628
20
3.866223
11
11.017927
21
4.399911
0
LINE
8
Layer 1
10
11.017927
20
4.399911
11
10.958628
21
4.932436
0
LINE
8
Layer 1
10
10.958628
20
4.932436
11
10.780733
21
5.311482
0
LINE
8
Layer 1
10
10.780733
20
5.311482
11
10.487728
21
5.541700
0
LINE
8
Layer 1
10
10.487728
20
5.541700
11
10.073800
21
5.618440
0
LINE
8
Layer 1
10
10.073800
20
5.618440
11
10.073800
21
5.618440
0
LINE
8
Layer 1
10
12.287620
20
8.953120
11
12.287600
21
7.669480
0
LINE
8
Layer 1
10
12.287600
20
7.669480
11
11.455094
21
7.976438
0
LINE
8
Layer 1
10
11.455094
20
7.976438
11
10.692351
21
8.078757
0
LINE
8
Layer 1
10
10.692351
20
8.078757
11
9.980768
21
7.967136
0
LINE
8
Layer 1
10
9.980768
20
7.967136
11
9.445921
21
7.632273
0
LINE
8
Layer 1
10
9.445921
20
7.632273
11
9.092454
21
7.082306
0
LINE
8
Layer 1
10
9.092454
20
7.082306
11
8.925023
21
6.316073
0
LINE
8
Layer 1
10
8.925023
20
6.316073
11
9.590098
21
6.655587
0
LINE
8
Layer 1
10
9.590098
20
6.655587
11
10.371445
21
6.771859
0
LINE
8
Layer 1
10
10.371445
20
6.771859
11
11.333012
21
6.616055
0
LINE
8
Layer 1
10
11.333012
20
6.616055
11
12.087615
21
6.148642
0
LINE
8
Layer 1
10
12.087615
20
6.148642
11
12.579445
21
5.428918
0
LINE
8
Layer 1
10
12.579445
20
5.428918
11
12.743388
21
4.516182
0
LINE
8
Layer 1
10
12.743388
20
4.516182
11
12.560841
21
3.510429
0
LINE
8
Layer 1
10
12.560841
20
3.510429
11
12.013201
21
2.725592
0
LINE
8
Layer 1
10
12.013201
20
2.725592
11
11.158602
21
2.223297
0
LINE
8
Layer 1
10
11.158602
20
2.223297
11
10.055181
21
2.055866
0
LINE
8
Layer 1
10
10.055181
20
2.055866
11
8.854096
21
2.283759
0
LINE
8
Layer 1
10
8.854096
20
2.283759
11
7.957641
21
2.967437
0
LINE
8
Layer 1
10
7.957641
20
2.967437
11
7.403024
21
4.074345
0
LINE
8
Layer 1
10
7.403024
20
4.074345
11
7.218152
21
5.562627
0
LINE
8
Layer 1
10
7.218152
20
5.562627
11
7.434417
21
7.098577
0
LINE
8
Layer 1
10
7.434417
20
7.098577
11
8.083214
21
8.264787
0
LINE
8
Layer 1
10
8.083214
20
8.264787
11
9.113383
21
9.004276
0
LINE
8
Layer 1
10
9.113383
20
9.004276
11
10.464464
21
9.250772
0
LINE
8
Layer 1
10
10.464464
20
9.250772
11
11.394639
21
9.176358
0
LINE
8
Layer 1
10
11.394639
20
9.176358
11
12.287607
21
8.953116
0
LINE
8
Layer 1
10
12.287607
20
8.953116
11
12.287620
21
8.953120
 0 
ENDSEC
 0 
EOF