999
"DXF R12 Output" (www.mydxf.blogspot.com)
 0 
SECTION
 2 
HEADER
 9 
$ACADVER
 1 
AC1009
 9 
$EXTMIN
 10 
 0 
 20 
 0 
 9 
$EXTMAX
 10 
 8.5 
 20 
 11 
 0 
ENDSEC
 0 
SECTION
 2 
ENTITIES
0
LINE
8
Layer 1
10
1.116210
20
3.427880
11
2.697510
21
3.427880
0
LINE
8
Layer 1
10
2.697510
20
3.427880
11
2.697510
21
7.915970
0
LINE
8
Layer 1
10
2.697510
20
7.915970
11
1.074360
21
7.581107
0
LINE
8
Layer 1
10
1.074360
20
7.581107
11
1.074350
21
8.799640
0
LINE
8
Layer 1
10
1.074350
20
8.799640
11
2.688200
21
9.134503
0
LINE
8
Layer 1
10
2.688200
20
9.134503
11
4.390420
21
9.134500
0
LINE
8
Layer 1
10
4.390420
20
9.134500
11
4.390420
21
3.427880
0
LINE
8
Layer 1
10
4.390420
20
3.427880
11
5.971720
21
3.427880
0
LINE
8
Layer 1
10
5.971720
20
3.427880
11
5.971720
21
2.190750
0
LINE
8
Layer 1
10
5.971720
20
2.190750
11
1.116210
21
2.190750
0
LINE
8
Layer 1
10
1.116210
20
2.190750
11
1.116210
21
3.427880
0
LINE
8
Layer 1
10
9.943570
20
5.297530
11
9.499412
21
5.228929
0
LINE
8
Layer 1
10
9.499412
20
5.228929
11
9.171525
21
5.023128
0
LINE
8
Layer 1
10
9.171525
20
5.023128
11
8.969212
21
4.689428
0
LINE
8
Layer 1
10
8.969212
20
4.689428
11
8.901774
21
4.237130
0
LINE
8
Layer 1
10
8.901774
20
4.237130
11
8.969212
21
3.784832
0
LINE
8
Layer 1
10
8.969212
20
3.784832
11
9.171525
21
3.451132
0
LINE
8
Layer 1
10
9.171525
20
3.451132
11
9.499412
21
3.248819
0
LINE
8
Layer 1
10
9.499412
20
3.248819
11
9.943570
21
3.181381
0
LINE
8
Layer 1
10
9.943570
20
3.181381
11
10.383078
21
3.248819
0
LINE
8
Layer 1
10
10.383078
20
3.248819
11
10.706313
21
3.451132
0
LINE
8
Layer 1
10
10.706313
20
3.451132
11
10.905138
21
3.784832
0
LINE
8
Layer 1
10
10.905138
20
3.784832
11
10.971413
21
4.237130
0
LINE
8
Layer 1
10
10.971413
20
4.237130
11
10.905138
21
4.691753
0
LINE
8
Layer 1
10
10.905138
20
4.691753
11
10.706313
21
5.023128
0
LINE
8
Layer 1
10
10.706313
20
5.023128
11
10.383077
21
5.228929
0
LINE
8
Layer 1
10
10.383077
20
5.228929
11
9.943570
21
5.297530
0
LINE
8
Layer 1
10
9.943570
20
5.297530
11
9.943570
21
5.297530
0
LINE
8
Layer 1
10
8.636670
20
5.888191
11
8.082053
21
6.130036
0
LINE
8
Layer 1
10
8.082053
20
6.130036
11
7.683241
21
6.474201
0
LINE
8
Layer 1
10
7.683241
20
6.474201
11
7.442558
21
6.918359
0
LINE
8
Layer 1
10
7.442558
20
6.918359
11
7.362331
21
7.460186
0
LINE
8
Layer 1
10
7.362331
20
7.460186
11
7.526274
21
8.234556
0
LINE
8
Layer 1
10
7.526274
20
8.234556
11
8.018104
21
8.799636
0
LINE
8
Layer 1
10
8.018104
20
8.799636
11
8.827355
21
9.144963
0
LINE
8
Layer 1
10
8.827355
20
9.144963
11
9.943564
21
9.260072
0
LINE
8
Layer 1
10
9.943564
20
9.260072
11
11.052799
21
9.144963
0
LINE
8
Layer 1
10
11.052799
20
9.144963
11
11.859724
21
8.799636
0
LINE
8
Layer 1
10
11.859724
20
8.799636
11
12.351554
21
8.236880
0
LINE
8
Layer 1
10
12.351554
20
8.236880
11
12.515497
21
7.460186
0
LINE
8
Layer 1
10
12.515497
20
7.460186
11
12.434107
21
6.918359
0
LINE
8
Layer 1
10
12.434107
20
6.918359
11
12.189936
21
6.474201
0
LINE
8
Layer 1
10
12.189936
20
6.474201
11
11.791124
21
6.130036
0
LINE
8
Layer 1
10
11.791124
20
6.130036
11
11.236507
21
5.888191
0
LINE
8
Layer 1
10
11.236507
20
5.888191
11
11.856236
21
5.631230
0
LINE
8
Layer 1
10
11.856236
20
5.631230
11
12.301557
21
5.251021
0
LINE
8
Layer 1
10
12.301557
20
5.251021
11
12.573633
21
4.755702
0
LINE
8
Layer 1
10
12.573633
20
4.755702
11
12.664325
21
4.144111
0
LINE
8
Layer 1
10
12.664325
20
4.144111
11
12.492243
21
3.237193
0
LINE
8
Layer 1
10
12.492243
20
3.237193
11
11.975996
21
2.581421
0
LINE
8
Layer 1
10
11.975996
20
2.581421
11
11.126049
21
2.187259
0
LINE
8
Layer 1
10
11.126049
20
2.187259
11
9.943566
21
2.055872
0
LINE
8
Layer 1
10
9.943566
20
2.055872
11
8.755271
21
2.187259
0
LINE
8
Layer 1
10
8.755271
20
2.187259
11
7.897186
21
2.581421
0
LINE
8
Layer 1
10
7.897186
20
2.581421
11
7.380939
21
3.237193
0
LINE
8
Layer 1
10
7.380939
20
3.237193
11
7.208857
21
4.144111
0
LINE
8
Layer 1
10
7.208857
20
4.144111
11
7.298386
21
4.755701
0
LINE
8
Layer 1
10
7.298386
20
4.755701
11
7.566974
21
5.251021
0
LINE
8
Layer 1
10
7.566974
20
5.251021
11
8.015783
21
5.631230
0
LINE
8
Layer 1
10
8.015783
20
5.631230
11
8.636674
21
5.888191
0
LINE
8
Layer 1
10
8.636674
20
5.888191
11
8.636670
21
5.888191
0
LINE
8
Layer 1
10
9.055249
20
7.278801
11
9.283142
21
6.641631
0
LINE
8
Layer 1
10
9.283142
20
6.641631
11
9.943566
21
6.418389
0
LINE
8
Layer 1
10
9.943566
20
6.418389
11
10.590038
21
6.641631
0
LINE
8
Layer 1
10
10.590038
20
6.641631
11
10.817931
21
7.278801
0
LINE
8
Layer 1
10
10.817931
20
7.278801
11
10.590038
21
7.911320
0
LINE
8
Layer 1
10
10.590038
20
7.911320
11
9.943566
21
8.134562
0
LINE
8
Layer 1
10
9.943566
20
8.134562
11
9.283142
21
7.911320
0
LINE
8
Layer 1
10
9.283142
20
7.911320
11
9.055249
21
7.278801
0
LINE
8
Layer 1
10
9.055249
20
7.278801
11
9.055249
21
7.278801
 0 
ENDSEC
 0 
EOF