999
"DXF R12 Output" (www.mydxf.blogspot.com)
 0 
SECTION
 2 
HEADER
 9 
$ACADVER
 1 
AC1009
 9 
$EXTMIN
 10 
 0 
 20 
 0 
 9 
$EXTMAX
 10 
 8.5 
 20 
 11 
 0 
ENDSEC
 0 
SECTION
 2 
ENTITIES
0
LINE
8
Layer 1
10
1.116210
20
3.427880
11
2.697510
21
3.427880
0
LINE
8
Layer 1
10
2.697510
20
3.427880
11
2.697510
21
7.915970
0
LINE
8
Layer 1
10
2.697510
20
7.915970
11
1.074360
21
7.581107
0
LINE
8
Layer 1
10
1.074360
20
7.581107
11
1.074350
21
8.799640
0
LINE
8
Layer 1
10
1.074350
20
8.799640
11
2.688200
21
9.134503
0
LINE
8
Layer 1
10
2.688200
20
9.134503
11
4.390420
21
9.134500
0
LINE
8
Layer 1
10
4.390420
20
9.134500
11
4.390420
21
3.427880
0
LINE
8
Layer 1
10
4.390420
20
3.427880
11
5.971720
21
3.427880
0
LINE
8
Layer 1
10
5.971720
20
3.427880
11
5.971720
21
2.190750
0
LINE
8
Layer 1
10
5.971720
20
2.190750
11
1.116210
21
2.190750
0
LINE
8
Layer 1
10
1.116210
20
2.190750
11
1.116210
21
3.427880
0
LINE
8
Layer 1
10
7.580920
20
2.344230
11
7.580920
21
3.627870
0
LINE
8
Layer 1
10
7.580920
20
3.627870
11
8.399474
21
3.325563
0
LINE
8
Layer 1
10
8.399474
20
3.325563
11
9.171519
21
3.227895
0
LINE
8
Layer 1
10
9.171519
20
3.227895
11
9.883102
21
3.338353
0
LINE
8
Layer 1
10
9.883102
20
3.338353
11
10.417949
21
3.669728
0
LINE
8
Layer 1
10
10.417949
20
3.669728
11
10.772578
21
4.223182
0
LINE
8
Layer 1
10
10.772578
20
4.223182
11
10.943498
21
4.990578
0
LINE
8
Layer 1
10
10.943498
20
4.990578
11
10.269121
21
4.641763
0
LINE
8
Layer 1
10
10.269121
20
4.641763
11
9.492425
21
4.525491
0
LINE
8
Layer 1
10
9.492425
20
4.525491
11
8.529695
21
4.680132
0
LINE
8
Layer 1
10
8.529695
20
4.680132
11
7.771605
21
5.144057
0
LINE
8
Layer 1
10
7.771605
20
5.144057
11
7.283264
21
5.864943
0
LINE
8
Layer 1
10
7.283264
20
5.864943
11
7.120483
21
6.781167
0
LINE
8
Layer 1
10
7.120483
20
6.781167
11
7.301867
21
7.790407
0
LINE
8
Layer 1
10
7.301867
20
7.790407
11
7.846019
21
8.576407
0
LINE
8
Layer 1
10
7.846019
20
8.576407
11
8.699455
21
9.082189
0
LINE
8
Layer 1
10
8.699455
20
9.082189
11
9.799389
21
9.250784
0
LINE
8
Layer 1
10
9.799389
20
9.250784
11
11.003967
21
9.021728
0
LINE
8
Layer 1
10
11.003967
20
9.021728
11
11.901579
21
8.334562
0
LINE
8
Layer 1
10
11.901579
20
8.334562
11
12.459684
21
7.228816
0
LINE
8
Layer 1
10
12.459684
20
7.228816
11
12.645719
21
5.744022
0
LINE
8
Layer 1
10
12.645719
20
5.744022
11
12.428291
21
4.206909
0
LINE
8
Layer 1
10
12.428291
20
4.206909
11
11.776006
21
3.037212
0
LINE
8
Layer 1
10
11.776006
20
3.037212
11
10.744675
21
2.301211
0
LINE
8
Layer 1
10
10.744675
20
2.301211
11
9.390106
21
2.055878
0
LINE
8
Layer 1
10
9.390106
20
2.055878
11
8.455281
21
2.130292
0
LINE
8
Layer 1
10
8.455281
20
2.130292
11
7.580917
21
2.344232
0
LINE
8
Layer 1
10
7.580917
20
2.344232
11
7.580920
21
2.344230
0
LINE
8
Layer 1
10
9.790090
20
5.688210
11
10.201692
21
5.763787
0
LINE
8
Layer 1
10
10.201692
20
5.763787
11
10.497023
21
5.990517
0
LINE
8
Layer 1
10
10.497023
20
5.990517
11
10.674919
21
6.373051
0
LINE
8
Layer 1
10
10.674919
20
6.373051
11
10.734217
21
6.906739
0
LINE
8
Layer 1
10
10.734217
20
6.906739
11
10.674919
21
7.436938
0
LINE
8
Layer 1
10
10.674919
20
7.436938
11
10.497023
21
7.818310
0
LINE
8
Layer 1
10
10.497023
20
7.818310
11
10.201693
21
8.048528
0
LINE
8
Layer 1
10
10.201693
20
8.048528
11
9.790090
21
8.125268
0
LINE
8
Layer 1
10
9.790090
20
8.125268
11
9.378488
21
8.048528
0
LINE
8
Layer 1
10
9.378488
20
8.048528
11
9.083157
21
7.818310
0
LINE
8
Layer 1
10
9.083157
20
7.818310
11
8.905261
21
7.436938
0
LINE
8
Layer 1
10
8.905261
20
7.436938
11
8.845963
21
6.906739
0
LINE
8
Layer 1
10
8.845963
20
6.906739
11
8.905261
21
6.373051
0
LINE
8
Layer 1
10
8.905261
20
6.373051
11
9.083157
21
5.990517
0
LINE
8
Layer 1
10
9.083157
20
5.990517
11
9.378487
21
5.763787
0
LINE
8
Layer 1
10
9.378487
20
5.763787
11
9.790090
21
5.688210
0
LINE
8
Layer 1
10
9.790090
20
5.688210
11
9.790090
21
5.688210
 0 
ENDSEC
 0 
EOF