999
"DXF R12 Output" (www.mydxf.blogspot.com)
 0 
SECTION
 2 
HEADER
 9 
$ACADVER
 1 
AC1009
 9 
$EXTMIN
 10 
 0 
 20 
 0 
 9 
$EXTMAX
 10 
 8.5 
 20 
 11 
 0 
ENDSEC
 0 
SECTION
 2 
ENTITIES
0
LINE
8
Layer 1
10
1.096000
20
13.808200
11
2.648670
21
13.808200
0
LINE
8
Layer 1
10
2.648670
20
13.808200
11
2.648670
21
18.215100
0
LINE
8
Layer 1
10
2.648670
20
18.215100
11
1.054900
21
17.886299
0
LINE
8
Layer 1
10
1.054900
20
17.886299
11
1.054900
21
19.082700
0
LINE
8
Layer 1
10
1.054900
20
19.082700
11
2.639540
21
19.411501
0
LINE
8
Layer 1
10
2.639540
20
19.411501
11
4.310940
21
19.411500
0
LINE
8
Layer 1
10
4.310940
20
19.411500
11
4.310940
21
13.808200
0
LINE
8
Layer 1
10
4.310940
20
13.808200
11
5.863610
21
13.808200
0
LINE
8
Layer 1
10
5.863610
20
13.808200
11
5.863610
21
12.593500
0
LINE
8
Layer 1
10
5.863610
20
12.593500
11
1.096000
21
12.593500
0
LINE
8
Layer 1
10
1.096000
20
12.593500
11
1.096000
21
13.808200
0
LINE
8
Layer 1
10
8.685840
20
3.753890
11
11.686200
21
3.753890
0
LINE
8
Layer 1
10
11.686200
20
3.753890
11
11.686200
21
2.461520
0
LINE
8
Layer 1
10
11.686200
20
2.461520
11
6.731290
21
2.461520
0
LINE
8
Layer 1
10
6.731290
20
2.461520
11
6.731290
21
3.753890
0
LINE
8
Layer 1
10
6.731290
20
3.753890
11
9.220140
21
5.950470
0
LINE
8
Layer 1
10
9.220140
20
5.950470
11
9.713343
21
6.539573
0
LINE
8
Layer 1
10
9.713343
20
6.539573
11
9.873177
21
7.137809
0
LINE
8
Layer 1
10
9.873177
20
7.137809
11
9.792118
21
7.570503
0
LINE
8
Layer 1
10
9.792118
20
7.570503
11
9.548942
21
7.909580
0
LINE
8
Layer 1
10
9.548942
20
7.909580
11
9.175615
21
8.128781
0
LINE
8
Layer 1
10
9.175615
20
8.128781
11
8.694971
21
8.201848
0
LINE
8
Layer 1
10
8.694971
20
8.201848
11
7.795333
21
8.023747
0
LINE
8
Layer 1
10
7.795333
20
8.023747
11
6.749563
21
7.503144
0
LINE
8
Layer 1
10
6.749563
20
7.503144
11
6.749560
21
9.001020
0
LINE
8
Layer 1
10
6.749560
20
9.001020
11
7.923200
21
9.297855
0
LINE
8
Layer 1
10
7.923200
20
9.297855
11
9.060310
21
9.402889
0
LINE
8
Layer 1
10
9.060310
20
9.402889
11
10.147180
21
9.268172
0
LINE
8
Layer 1
10
10.147180
20
9.268172
11
10.960050
21
8.864019
0
LINE
8
Layer 1
10
10.960050
20
8.864019
11
11.470378
21
8.218974
0
LINE
8
Layer 1
10
11.470378
20
8.218974
11
11.640487
21
7.361579
0
LINE
8
Layer 1
10
11.640487
20
7.361579
11
11.352785
21
6.320369
0
LINE
8
Layer 1
10
11.352785
20
6.320369
11
10.142615
21
5.032559
0
LINE
8
Layer 1
10
10.142615
20
5.032559
11
8.685840
21
3.753890
0
LINE
8
Layer 1
10
12.658100
20
18.398500
11
13.209200
21
17.847400
0
LINE
8
Layer 1
10
13.209200
20
17.847400
11
-1.486950
21
3.151230
0
LINE
8
Layer 1
10
-1.486950
20
3.151230
11
-2.038060
21
3.702340
0
LINE
8
Layer 1
10
-2.038060
20
3.702340
11
12.658100
21
18.398500
 0 
ENDSEC
 0 
EOF