999
"DXF R12 Output" (www.mydxf.blogspot.com)
 0 
SECTION
 2 
HEADER
 9 
$ACADVER
 1 
AC1009
 9 
$EXTMIN
 10 
 0 
 20 
 0 
 9 
$EXTMAX
 10 
 8.5 
 20 
 11 
 0 
ENDSEC
 0 
SECTION
 2 
ENTITIES
0
LINE
8
Layer 1
10
2.744020
20
3.506950
11
5.799640
21
3.506950
0
LINE
8
Layer 1
10
5.799640
20
3.506950
11
5.799640
21
2.190750
0
LINE
8
Layer 1
10
5.799640
20
2.190750
11
0.753441
21
2.190750
0
LINE
8
Layer 1
10
0.753441
20
2.190750
11
0.753441
21
3.506950
0
LINE
8
Layer 1
10
0.753441
20
3.506950
11
3.288171
21
5.744020
0
LINE
8
Layer 1
10
3.288171
20
5.744020
11
3.790465
21
6.343983
0
LINE
8
Layer 1
10
3.790465
20
6.343983
11
3.953245
21
6.953247
0
LINE
8
Layer 1
10
3.953245
20
6.953247
11
3.870692
21
7.393917
0
LINE
8
Layer 1
10
3.870692
20
7.393917
11
3.623033
21
7.739245
0
LINE
8
Layer 1
10
3.623033
20
7.739245
11
3.242824
21
7.962487
0
LINE
8
Layer 1
10
3.242824
20
7.962487
11
2.753320
21
8.036901
0
LINE
8
Layer 1
10
2.753320
20
8.036901
11
1.837098
21
7.855517
0
LINE
8
Layer 1
10
1.837098
20
7.855517
11
0.772048
21
7.325318
0
LINE
8
Layer 1
10
0.772048
20
7.325318
11
0.772045
21
8.850800
0
LINE
8
Layer 1
10
0.772045
20
8.850800
11
1.967315
21
9.153107
0
LINE
8
Layer 1
10
1.967315
20
9.153107
11
3.125385
21
9.260077
0
LINE
8
Layer 1
10
3.125385
20
9.260077
11
4.232290
21
9.122876
0
LINE
8
Layer 1
10
4.232290
20
9.122876
11
5.060145
21
8.711274
0
LINE
8
Layer 1
10
5.060145
20
8.711274
11
5.579880
21
8.054338
0
LINE
8
Layer 1
10
5.579880
20
8.054338
11
5.753125
21
7.181134
0
LINE
8
Layer 1
10
5.753125
20
7.181134
11
5.679874
21
6.632331
0
LINE
8
Layer 1
10
5.679874
20
6.632331
11
5.460120
21
6.120734
0
LINE
8
Layer 1
10
5.460120
20
6.120734
11
4.227640
21
4.809184
0
LINE
8
Layer 1
10
4.227640
20
4.809184
11
2.744020
21
3.506950
0
LINE
8
Layer 1
10
11.008600
20
5.669600
11
10.946976
21
6.778830
0
LINE
8
Layer 1
10
10.946976
20
6.778830
11
10.762104
21
7.502040
0
LINE
8
Layer 1
10
10.762104
20
7.502040
11
10.436543
21
7.903177
0
LINE
8
Layer 1
10
10.436543
20
7.903177
11
9.943550
21
8.036890
0
LINE
8
Layer 1
10
9.943550
20
8.036890
11
9.449395
21
7.903177
0
LINE
8
Layer 1
10
9.449395
20
7.903177
11
9.120346
21
7.502040
0
LINE
8
Layer 1
10
9.120346
20
7.502040
11
8.935474
21
6.778830
0
LINE
8
Layer 1
10
8.935474
20
6.778830
11
8.873850
21
5.669600
0
LINE
8
Layer 1
10
8.873850
20
5.669600
11
8.935474
21
4.547575
0
LINE
8
Layer 1
10
8.935474
20
4.547575
11
9.120346
21
3.813900
0
LINE
8
Layer 1
10
9.120346
20
3.813900
11
9.449395
21
3.409274
0
LINE
8
Layer 1
10
9.449395
20
3.409274
11
9.943550
21
3.274399
0
LINE
8
Layer 1
10
9.943550
20
3.274399
11
10.434217
21
3.409274
0
LINE
8
Layer 1
10
10.434217
20
3.409274
11
10.762104
21
3.813900
0
LINE
8
Layer 1
10
10.762104
20
3.813900
11
10.946976
21
4.547575
0
LINE
8
Layer 1
10
10.946976
20
4.547575
11
11.008600
21
5.669600
0
LINE
8
Layer 1
10
11.008600
20
5.669600
11
11.008600
21
5.669600
0
LINE
8
Layer 1
10
12.799190
20
5.655646
11
12.613155
21
4.126673
0
LINE
8
Layer 1
10
12.613155
20
4.126673
11
12.055050
21
2.990696
0
LINE
8
Layer 1
10
12.055050
20
2.990696
11
11.155105
21
2.289577
0
LINE
8
Layer 1
10
11.155105
20
2.289577
11
9.943550
21
2.055871
0
LINE
8
Layer 1
10
9.943550
20
2.055871
11
8.728508
21
2.289577
0
LINE
8
Layer 1
10
8.728508
20
2.289577
11
7.827400
21
2.990696
0
LINE
8
Layer 1
10
7.827400
20
2.990696
11
7.269295
21
4.126671
0
LINE
8
Layer 1
10
7.269295
20
4.126671
11
7.083260
21
5.655646
0
LINE
8
Layer 1
10
7.083260
20
5.655646
11
7.269295
21
7.186943
0
LINE
8
Layer 1
10
7.269295
20
7.186943
11
7.827400
21
8.320596
0
LINE
8
Layer 1
10
7.827400
20
8.320596
11
8.728508
21
9.025203
0
LINE
8
Layer 1
10
8.728508
20
9.025203
11
9.943550
21
9.260072
0
LINE
8
Layer 1
10
9.943550
20
9.260072
11
11.155105
21
9.025203
0
LINE
8
Layer 1
10
11.155105
20
9.025203
11
12.055050
21
8.320596
0
LINE
8
Layer 1
10
12.055050
20
8.320596
11
12.613155
21
7.186946
0
LINE
8
Layer 1
10
12.613155
20
7.186946
11
12.799190
21
5.655646
0
LINE
8
Layer 1
10
12.799190
20
5.655646
11
12.799190
21
5.655646
 0 
ENDSEC
 0 
EOF