999
"DXF R12 Output" (www.mydxf.blogspot.com)
 0 
SECTION
 2 
HEADER
 9 
$ACADVER
 1 
AC1009
 9 
$EXTMIN
 10 
 0 
 20 
 0 
 9 
$EXTMAX
 10 
 8.5 
 20 
 11 
 0 
ENDSEC
 0 
SECTION
 2 
ENTITIES
0
LINE
8
Layer 1
10
2.744020
20
3.506950
11
5.799640
21
3.506950
0
LINE
8
Layer 1
10
5.799640
20
3.506950
11
5.799640
21
2.190750
0
LINE
8
Layer 1
10
5.799640
20
2.190750
11
0.753441
21
2.190750
0
LINE
8
Layer 1
10
0.753441
20
2.190750
11
0.753441
21
3.506950
0
LINE
8
Layer 1
10
0.753441
20
3.506950
11
3.288171
21
5.744020
0
LINE
8
Layer 1
10
3.288171
20
5.744020
11
3.790465
21
6.343983
0
LINE
8
Layer 1
10
3.790465
20
6.343983
11
3.953245
21
6.953247
0
LINE
8
Layer 1
10
3.953245
20
6.953247
11
3.870692
21
7.393917
0
LINE
8
Layer 1
10
3.870692
20
7.393917
11
3.623033
21
7.739245
0
LINE
8
Layer 1
10
3.623033
20
7.739245
11
3.242824
21
7.962487
0
LINE
8
Layer 1
10
3.242824
20
7.962487
11
2.753320
21
8.036901
0
LINE
8
Layer 1
10
2.753320
20
8.036901
11
1.837098
21
7.855517
0
LINE
8
Layer 1
10
1.837098
20
7.855517
11
0.772048
21
7.325318
0
LINE
8
Layer 1
10
0.772048
20
7.325318
11
0.772045
21
8.850800
0
LINE
8
Layer 1
10
0.772045
20
8.850800
11
1.967315
21
9.153107
0
LINE
8
Layer 1
10
1.967315
20
9.153107
11
3.125385
21
9.260077
0
LINE
8
Layer 1
10
3.125385
20
9.260077
11
4.232290
21
9.122876
0
LINE
8
Layer 1
10
4.232290
20
9.122876
11
5.060145
21
8.711274
0
LINE
8
Layer 1
10
5.060145
20
8.711274
11
5.579880
21
8.054338
0
LINE
8
Layer 1
10
5.579880
20
8.054338
11
5.753125
21
7.181134
0
LINE
8
Layer 1
10
5.753125
20
7.181134
11
5.679874
21
6.632331
0
LINE
8
Layer 1
10
5.679874
20
6.632331
11
5.460120
21
6.120734
0
LINE
8
Layer 1
10
5.460120
20
6.120734
11
4.227640
21
4.809184
0
LINE
8
Layer 1
10
4.227640
20
4.809184
11
2.744020
21
3.506950
0
LINE
8
Layer 1
10
9.371510
20
3.506950
11
12.427100
21
3.506950
0
LINE
8
Layer 1
10
12.427100
20
3.506950
11
12.427100
21
2.190750
0
LINE
8
Layer 1
10
12.427100
20
2.190750
11
7.380940
21
2.190750
0
LINE
8
Layer 1
10
7.380940
20
2.190750
11
7.380940
21
3.506950
0
LINE
8
Layer 1
10
7.380940
20
3.506950
11
9.915670
21
5.744020
0
LINE
8
Layer 1
10
9.915670
20
5.744020
11
10.417964
21
6.343983
0
LINE
8
Layer 1
10
10.417964
20
6.343983
11
10.580744
21
6.953247
0
LINE
8
Layer 1
10
10.580744
20
6.953247
11
10.498191
21
7.393917
0
LINE
8
Layer 1
10
10.498191
20
7.393917
11
10.250532
21
7.739245
0
LINE
8
Layer 1
10
10.250532
20
7.739245
11
9.870323
21
7.962487
0
LINE
8
Layer 1
10
9.870323
20
7.962487
11
9.380819
21
8.036901
0
LINE
8
Layer 1
10
9.380819
20
8.036901
11
8.464597
21
7.855517
0
LINE
8
Layer 1
10
8.464597
20
7.855517
11
7.399547
21
7.325318
0
LINE
8
Layer 1
10
7.399547
20
7.325318
11
7.399540
21
8.850800
0
LINE
8
Layer 1
10
7.399540
20
8.850800
11
8.594810
21
9.153107
0
LINE
8
Layer 1
10
8.594810
20
9.153107
11
9.752880
21
9.260077
0
LINE
8
Layer 1
10
9.752880
20
9.260077
11
10.859785
21
9.122876
0
LINE
8
Layer 1
10
10.859785
20
9.122876
11
11.687640
21
8.711274
0
LINE
8
Layer 1
10
11.687640
20
8.711274
11
12.207375
21
8.054338
0
LINE
8
Layer 1
10
12.207375
20
8.054338
11
12.380620
21
7.181134
0
LINE
8
Layer 1
10
12.380620
20
7.181134
11
12.307369
21
6.632331
0
LINE
8
Layer 1
10
12.307369
20
6.632331
11
12.087615
21
6.120734
0
LINE
8
Layer 1
10
12.087615
20
6.120734
11
10.855135
21
4.809184
0
LINE
8
Layer 1
10
10.855135
20
4.809184
11
9.371510
21
3.506950
 0 
ENDSEC
 0 
EOF