999
"DXF R12 Output" (www.mydxf.blogspot.com)
 0 
SECTION
 2 
HEADER
 9 
$ACADVER
 1 
AC1009
 9 
$EXTMIN
 10 
 0 
 20 
 0 
 9 
$EXTMAX
 10 
 8.5 
 20 
 11 
 0 
ENDSEC
 0 
SECTION
 2 
ENTITIES
0
LINE
8
Layer 1
10
4.356610
20
16.269700
11
4.962836
21
16.025383
0
LINE
8
Layer 1
10
4.962836
20
16.025383
11
5.402380
21
15.648632
0
LINE
8
Layer 1
10
5.402380
20
15.648632
11
5.672955
21
15.149722
0
LINE
8
Layer 1
10
5.672955
20
15.149722
11
5.763147
21
14.529792
0
LINE
8
Layer 1
10
5.763147
20
14.529792
11
5.569063
21
13.637007
0
LINE
8
Layer 1
10
5.569063
20
13.637007
11
4.986812
21
12.986252
0
LINE
8
Layer 1
10
4.986812
20
12.986252
11
4.032377
21
12.592377
0
LINE
8
Layer 1
10
4.032377
20
12.592377
11
2.721742
21
12.461085
0
LINE
8
Layer 1
10
2.721742
20
12.461085
11
1.666842
21
12.547852
0
LINE
8
Layer 1
10
1.666842
20
12.547852
11
0.625634
21
12.799000
0
LINE
8
Layer 1
10
0.625634
20
12.799000
11
0.625634
21
14.155300
0
LINE
8
Layer 1
10
0.625634
20
14.155300
11
1.602902
21
13.780833
0
LINE
8
Layer 1
10
1.602902
20
13.780833
11
2.561903
21
13.657533
0
LINE
8
Layer 1
10
2.561903
20
13.657533
11
3.178403
21
13.718042
0
LINE
8
Layer 1
10
3.178403
20
13.718042
11
3.630503
21
13.899567
0
LINE
8
Layer 1
10
3.630503
20
13.899567
11
3.911353
21
14.194118
0
LINE
8
Layer 1
10
3.911353
20
14.194118
11
4.004970
21
14.593701
0
LINE
8
Layer 1
10
4.004970
20
14.593701
11
3.909070
21
15.002419
0
LINE
8
Layer 1
10
3.909070
20
15.002419
11
3.621369
21
15.296969
0
LINE
8
Layer 1
10
3.621369
20
15.296969
11
3.151002
21
15.478495
0
LINE
8
Layer 1
10
3.151002
20
15.478495
11
2.497969
21
15.539003
0
LINE
8
Layer 1
10
2.497969
20
15.539003
11
1.794700
21
15.539000
0
LINE
8
Layer 1
10
1.794700
20
15.539000
11
1.794700
21
16.671500
0
LINE
8
Layer 1
10
1.794700
20
16.671500
11
2.534500
21
16.671500
0
LINE
8
Layer 1
10
2.534500
20
16.671500
11
3.520901
21
16.877000
0
LINE
8
Layer 1
10
3.520901
20
16.877000
11
3.764076
21
17.140726
0
LINE
8
Layer 1
10
3.764076
20
17.140726
11
3.845135
21
17.511768
0
LINE
8
Layer 1
10
3.845135
20
17.511768
11
3.766360
21
17.859977
0
LINE
8
Layer 1
10
3.766360
20
17.859977
11
3.530035
21
18.119135
0
LINE
8
Layer 1
10
3.530035
20
18.119135
11
2.639533
21
18.333769
0
LINE
8
Layer 1
10
2.639533
20
18.333769
11
1.780998
21
18.237869
0
LINE
8
Layer 1
10
1.780998
20
18.237869
11
0.917897
21
17.954735
0
LINE
8
Layer 1
10
0.917897
20
17.954735
11
0.917901
21
19.242600
0
LINE
8
Layer 1
10
0.917901
20
19.242600
11
1.949971
21
19.461800
0
LINE
8
Layer 1
10
1.949971
20
19.461800
11
2.954641
21
19.534867
0
LINE
8
Layer 1
10
2.954641
20
19.534867
11
4.115716
21
19.425267
0
LINE
8
Layer 1
10
4.115716
20
19.425267
11
4.941141
21
19.096466
0
LINE
8
Layer 1
10
4.941141
20
19.096466
11
5.437767
21
18.551889
0
LINE
8
Layer 1
10
5.437767
20
18.551889
11
5.603309
21
17.785826
0
LINE
8
Layer 1
10
5.603309
20
17.785826
11
5.524534
21
17.241250
0
LINE
8
Layer 1
10
5.524534
20
17.241250
11
5.288209
21
16.803991
0
LINE
8
Layer 1
10
5.288209
20
16.803991
11
4.897758
21
16.480899
0
LINE
8
Layer 1
10
4.897758
20
16.480899
11
4.356607
21
16.269690
0
LINE
8
Layer 1
10
4.356607
20
16.269690
11
4.356610
21
16.269700
0
LINE
8
Layer 1
10
9.434780
20
7.831950
11
7.507630
21
4.977770
0
LINE
8
Layer 1
10
7.507630
20
4.977770
11
9.434780
21
4.977770
0
LINE
8
Layer 1
10
9.434780
20
4.977770
11
9.434780
21
7.831950
0
LINE
8
Layer 1
10
9.142512
20
9.279590
11
11.097100
21
9.279590
0
LINE
8
Layer 1
10
11.097100
20
9.279590
11
11.097100
21
4.977770
0
LINE
8
Layer 1
10
11.097100
20
4.977770
11
12.069800
21
4.977770
0
LINE
8
Layer 1
10
12.069800
20
4.977770
11
12.069800
21
3.703660
0
LINE
8
Layer 1
10
12.069800
20
3.703660
11
11.097100
21
3.703660
0
LINE
8
Layer 1
10
11.097100
20
3.703660
11
11.097100
21
2.461520
0
LINE
8
Layer 1
10
11.097100
20
2.461520
11
9.434780
21
2.461520
0
LINE
8
Layer 1
10
9.434780
20
2.461520
11
9.434780
21
3.703660
0
LINE
8
Layer 1
10
9.434780
20
3.703660
11
6.411630
21
3.703660
0
LINE
8
Layer 1
10
6.411630
20
3.703660
11
6.411630
21
5.210670
0
LINE
8
Layer 1
10
6.411630
20
5.210670
11
9.142512
21
9.279590
0
LINE
8
Layer 1
10
12.658100
20
18.398500
11
13.209200
21
17.847400
0
LINE
8
Layer 1
10
13.209200
20
17.847400
11
-1.486950
21
3.151230
0
LINE
8
Layer 1
10
-1.486950
20
3.151230
11
-2.038060
21
3.702340
0
LINE
8
Layer 1
10
-2.038060
20
3.702340
11
12.658100
21
18.398500
 0 
ENDSEC
 0 
EOF