999
"DXF R12 Output" (www.mydxf.blogspot.com)
 0 
SECTION
 2 
HEADER
 9 
$ACADVER
 1 
AC1009
 9 
$EXTMIN
 10 
 0 
 20 
 0 
 9 
$EXTMAX
 10 
 8.5 
 20 
 11 
 0 
ENDSEC
 0 
SECTION
 2 
ENTITIES
0
LINE
8
Layer 1
10
4.436930
20
5.934700
11
5.054334
21
5.685878
0
LINE
8
Layer 1
10
5.054334
20
5.685878
11
5.501980
21
5.302181
0
LINE
8
Layer 1
10
5.501980
20
5.302181
11
5.777544
21
4.794074
0
LINE
8
Layer 1
10
5.777544
20
4.794074
11
5.869399
21
4.162721
0
LINE
8
Layer 1
10
5.869399
20
4.162721
11
5.671737
21
3.253476
0
LINE
8
Layer 1
10
5.671737
20
3.253476
11
5.078750
21
2.590721
0
LINE
8
Layer 1
10
5.078750
20
2.590721
11
4.106719
21
2.189583
0
LINE
8
Layer 1
10
4.106719
20
2.189583
11
2.771920
21
2.055871
0
LINE
8
Layer 1
10
2.771920
20
2.055871
11
1.697570
21
2.144238
0
LINE
8
Layer 1
10
1.697570
20
2.144238
11
0.637170
21
2.400040
0
LINE
8
Layer 1
10
0.637170
20
2.400040
11
0.637170
21
3.781350
0
LINE
8
Layer 1
10
0.637170
20
3.781350
11
1.632457
21
3.399978
0
LINE
8
Layer 1
10
1.632457
20
3.399978
11
2.609140
21
3.274404
0
LINE
8
Layer 1
10
2.609140
20
3.274404
11
3.237007
21
3.336028
0
LINE
8
Layer 1
10
3.237007
20
3.336028
11
3.697440
21
3.520900
0
LINE
8
Layer 1
10
3.697440
20
3.520900
11
3.983469
21
3.820881
0
LINE
8
Layer 1
10
3.983469
20
3.820881
11
4.078812
21
4.227833
0
LINE
8
Layer 1
10
4.078812
20
4.227833
11
3.981144
21
4.644086
0
LINE
8
Layer 1
10
3.981144
20
4.644086
11
3.688139
21
4.944067
0
LINE
8
Layer 1
10
3.688139
20
4.944067
11
3.209100
21
5.128939
0
LINE
8
Layer 1
10
3.209100
20
5.128939
11
2.544029
21
5.190563
0
LINE
8
Layer 1
10
2.544029
20
5.190563
11
1.827790
21
5.190560
0
LINE
8
Layer 1
10
1.827790
20
5.190560
11
1.827790
21
6.343980
0
LINE
8
Layer 1
10
1.827790
20
6.343980
11
2.581230
21
6.343980
0
LINE
8
Layer 1
10
2.581230
20
6.343980
11
3.585820
21
6.553269
0
LINE
8
Layer 1
10
3.585820
20
6.553269
11
3.833479
21
6.821857
0
LINE
8
Layer 1
10
3.833479
20
6.821857
11
3.916032
21
7.199741
0
LINE
8
Layer 1
10
3.916032
20
7.199741
11
3.835804
21
7.554370
0
LINE
8
Layer 1
10
3.835804
20
7.554370
11
3.595122
21
7.818307
0
LINE
8
Layer 1
10
3.595122
20
7.818307
11
2.688202
21
8.036898
0
LINE
8
Layer 1
10
2.688202
20
8.036898
11
1.813838
21
7.939230
0
LINE
8
Layer 1
10
1.813838
20
7.939230
11
0.934823
21
7.650876
0
LINE
8
Layer 1
10
0.934823
20
7.650876
11
0.934825
21
8.962420
0
LINE
8
Layer 1
10
0.934825
20
8.962420
11
1.985925
21
9.185662
0
LINE
8
Layer 1
10
1.985925
20
9.185662
11
3.009115
21
9.260076
0
LINE
8
Layer 1
10
3.009115
20
9.260076
11
4.191597
21
9.148455
0
LINE
8
Layer 1
10
4.191597
20
9.148455
11
5.032245
21
8.813592
0
LINE
8
Layer 1
10
5.032245
20
8.813592
11
5.538028
21
8.258976
0
LINE
8
Layer 1
10
5.538028
20
8.258976
11
5.706622
21
7.478792
0
LINE
8
Layer 1
10
5.706622
20
7.478792
11
5.626394
21
6.924176
0
LINE
8
Layer 1
10
5.626394
20
6.924176
11
5.385712
21
6.478854
0
LINE
8
Layer 1
10
5.385712
20
6.478854
11
4.988062
21
6.149805
0
LINE
8
Layer 1
10
4.988062
20
6.149805
11
4.436934
21
5.934702
0
LINE
8
Layer 1
10
4.436934
20
5.934702
11
4.436930
21
5.934700
 0 
ENDSEC
 0 
EOF