999
"DXF R12 Output" (www.mydxf.blogspot.com)
 0 
SECTION
 2 
HEADER
 9 
$ACADVER
 1 
AC1009
 9 
$EXTMIN
 10 
 0 
 20 
 0 
 9 
$EXTMAX
 10 
 8.5 
 20 
 11 
 0 
ENDSEC
 0 
SECTION
 2 
ENTITIES
0
LINE
8
Layer 1
10
1.009240
20
9.134500
11
5.460130
21
9.134500
0
LINE
8
Layer 1
10
5.460130
20
9.134500
11
5.460130
21
7.818310
0
LINE
8
Layer 1
10
5.460130
20
7.818310
11
2.437060
21
7.818310
0
LINE
8
Layer 1
10
2.437060
20
7.818310
11
2.437060
21
6.743950
0
LINE
8
Layer 1
10
2.437060
20
6.743950
11
2.846337
21
6.827666
0
LINE
8
Layer 1
10
2.846337
20
6.827666
11
3.278868
21
6.860222
0
LINE
8
Layer 1
10
3.278868
20
6.860222
11
4.407868
21
6.700929
0
LINE
8
Layer 1
10
4.407868
20
6.700929
11
5.255488
21
6.223052
0
LINE
8
Layer 1
10
5.255488
20
6.223052
11
5.785688
21
5.464960
0
LINE
8
Layer 1
10
5.785688
20
5.464960
11
5.962421
21
4.455722
0
LINE
8
Layer 1
10
5.962421
20
4.455722
11
5.769410
21
3.452297
0
LINE
8
Layer 1
10
5.769410
20
3.452297
11
5.190376
21
2.693042
0
LINE
8
Layer 1
10
5.190376
20
2.693042
11
4.272991
21
2.215164
0
LINE
8
Layer 1
10
4.272991
20
2.215164
11
3.055626
21
2.055872
0
LINE
8
Layer 1
10
3.055626
20
2.055872
11
1.883606
21
2.172144
0
LINE
8
Layer 1
10
1.883606
20
2.172144
11
0.734836
21
2.516309
0
LINE
8
Layer 1
10
0.734836
20
2.516309
11
0.734838
21
3.925530
0
LINE
8
Layer 1
10
0.734838
20
3.925530
11
1.809188
21
3.437188
0
LINE
8
Layer 1
10
1.809188
20
3.437188
11
2.771919
21
3.274407
0
LINE
8
Layer 1
10
2.771919
20
3.274407
11
3.353277
21
3.353472
0
LINE
8
Layer 1
10
3.353277
20
3.353472
11
3.795109
21
3.590666
0
LINE
8
Layer 1
10
3.795109
20
3.590666
11
4.077650
21
3.967386
0
LINE
8
Layer 1
10
4.077650
20
3.967386
11
4.171830
21
4.455728
0
LINE
8
Layer 1
10
4.171830
20
4.455728
11
4.077650
21
4.946395
0
LINE
8
Layer 1
10
4.077650
20
4.946395
11
3.795109
21
5.320790
0
LINE
8
Layer 1
10
3.795109
20
5.320790
11
3.353276
21
5.557984
0
LINE
8
Layer 1
10
3.353276
20
5.557984
11
2.771919
21
5.637049
0
LINE
8
Layer 1
10
2.771919
20
5.637049
11
1.948714
21
5.534730
0
LINE
8
Layer 1
10
1.948714
20
5.534730
11
1.009238
21
5.227772
0
LINE
8
Layer 1
10
1.009238
20
5.227772
11
1.009240
21
9.134500
 0 
ENDSEC
 0 
EOF