999
"DXF R12 Output" (www.mydxf.blogspot.com)
 0 
SECTION
 2 
HEADER
 9 
$ACADVER
 1 
AC1009
 9 
$EXTMIN
 10 
 0 
 20 
 0 
 9 
$EXTMAX
 10 
 8.5 
 20 
 11 
 0 
ENDSEC
 0 
SECTION
 2 
ENTITIES
0
LINE
8
Layer 1
10
3.446300
20
5.618440
11
3.034698
21
5.541700
0
LINE
8
Layer 1
10
3.034698
20
5.541700
11
2.739367
21
5.311482
0
LINE
8
Layer 1
10
2.739367
20
5.311482
11
2.564959
21
4.932436
0
LINE
8
Layer 1
10
2.564959
20
4.932436
11
2.506823
21
4.399911
0
LINE
8
Layer 1
10
2.506823
20
4.399911
11
2.739367
21
3.483689
0
LINE
8
Layer 1
10
2.739367
20
3.483689
11
3.034697
21
3.256959
0
LINE
8
Layer 1
10
3.034697
20
3.256959
11
3.446300
21
3.181382
0
LINE
8
Layer 1
10
3.446300
20
3.181382
11
3.860228
21
3.256959
0
LINE
8
Layer 1
10
3.860228
20
3.256959
11
4.153233
21
3.483689
0
LINE
8
Layer 1
10
4.153233
20
3.483689
11
4.331129
21
3.866223
0
LINE
8
Layer 1
10
4.331129
20
3.866223
11
4.390427
21
4.399911
0
LINE
8
Layer 1
10
4.390427
20
4.399911
11
4.331129
21
4.932436
0
LINE
8
Layer 1
10
4.331129
20
4.932436
11
4.153233
21
5.311482
0
LINE
8
Layer 1
10
4.153233
20
5.311482
11
3.860228
21
5.541700
0
LINE
8
Layer 1
10
3.860228
20
5.541700
11
3.446300
21
5.618440
0
LINE
8
Layer 1
10
3.446300
20
5.618440
11
3.446300
21
5.618440
0
LINE
8
Layer 1
10
5.660120
20
8.953120
11
5.660110
21
7.669480
0
LINE
8
Layer 1
10
5.660110
20
7.669480
11
4.827604
21
7.976438
0
LINE
8
Layer 1
10
4.827604
20
7.976438
11
4.064861
21
8.078757
0
LINE
8
Layer 1
10
4.064861
20
8.078757
11
3.353279
21
7.967136
0
LINE
8
Layer 1
10
3.353279
20
7.967136
11
2.818431
21
7.632273
0
LINE
8
Layer 1
10
2.818431
20
7.632273
11
2.464965
21
7.082306
0
LINE
8
Layer 1
10
2.464965
20
7.082306
11
2.297533
21
6.316073
0
LINE
8
Layer 1
10
2.297533
20
6.316073
11
2.962608
21
6.655587
0
LINE
8
Layer 1
10
2.962608
20
6.655587
11
3.743955
21
6.771859
0
LINE
8
Layer 1
10
3.743955
20
6.771859
11
4.705523
21
6.616055
0
LINE
8
Layer 1
10
4.705523
20
6.616055
11
5.460125
21
6.148642
0
LINE
8
Layer 1
10
5.460125
20
6.148642
11
5.951955
21
5.428918
0
LINE
8
Layer 1
10
5.951955
20
5.428918
11
6.115898
21
4.516182
0
LINE
8
Layer 1
10
6.115898
20
4.516182
11
5.933351
21
3.510429
0
LINE
8
Layer 1
10
5.933351
20
3.510429
11
5.385711
21
2.725592
0
LINE
8
Layer 1
10
5.385711
20
2.725592
11
4.531113
21
2.223297
0
LINE
8
Layer 1
10
4.531113
20
2.223297
11
3.427691
21
2.055866
0
LINE
8
Layer 1
10
3.427691
20
2.055866
11
2.226606
21
2.283759
0
LINE
8
Layer 1
10
2.226606
20
2.283759
11
1.330151
21
2.967437
0
LINE
8
Layer 1
10
1.330151
20
2.967437
11
0.775534
21
4.074345
0
LINE
8
Layer 1
10
0.775534
20
4.074345
11
0.590662
21
5.562627
0
LINE
8
Layer 1
10
0.590662
20
5.562627
11
0.806928
21
7.098577
0
LINE
8
Layer 1
10
0.806928
20
7.098577
11
1.455724
21
8.264787
0
LINE
8
Layer 1
10
1.455724
20
8.264787
11
2.485893
21
9.004276
0
LINE
8
Layer 1
10
2.485893
20
9.004276
11
3.836974
21
9.250772
0
LINE
8
Layer 1
10
3.836974
20
9.250772
11
4.767149
21
9.176358
0
LINE
8
Layer 1
10
4.767149
20
9.176358
11
5.660117
21
8.953116
0
LINE
8
Layer 1
10
5.660117
20
8.953116
11
5.660120
21
8.953120
 0 
ENDSEC
 0 
EOF