999
"DXF R12 Output" (www.mydxf.blogspot.com)
 0 
SECTION
 2 
HEADER
 9 
$ACADVER
 1 
AC1009
 9 
$EXTMIN
 10 
 0 
 20 
 0 
 9 
$EXTMAX
 10 
 8.5 
 20 
 11 
 0 
ENDSEC
 0 
SECTION
 2 
ENTITIES
0
LINE
8
Layer 1
10
0.637170
20
19.379200
11
5.869400
21
19.379200
0
LINE
8
Layer 1
10
5.869400
20
19.379200
11
5.869400
21
18.369900
0
LINE
8
Layer 1
10
5.869400
20
18.369900
11
3.162590
21
12.435400
0
LINE
8
Layer 1
10
3.162590
20
12.435400
11
1.418520
21
12.435400
0
LINE
8
Layer 1
10
1.418520
20
12.435400
11
3.981150
21
18.063000
0
LINE
8
Layer 1
10
3.981150
20
18.063000
11
0.637170
21
18.063000
0
LINE
8
Layer 1
10
0.637170
20
18.063000
11
0.637170
21
19.379200
0
LINE
8
Layer 1
10
7.218160
20
3.353800
11
8.799460
21
3.353800
0
LINE
8
Layer 1
10
8.799460
20
3.353800
11
8.799460
21
7.841890
0
LINE
8
Layer 1
10
8.799460
20
7.841890
11
7.176310
21
7.507027
0
LINE
8
Layer 1
10
7.176310
20
7.507027
11
7.176300
21
8.725560
0
LINE
8
Layer 1
10
7.176300
20
8.725560
11
8.790150
21
9.060423
0
LINE
8
Layer 1
10
8.790150
20
9.060423
11
10.492400
21
9.060420
0
LINE
8
Layer 1
10
10.492400
20
9.060420
11
10.492400
21
3.353800
0
LINE
8
Layer 1
10
10.492400
20
3.353800
11
12.073700
21
3.353800
0
LINE
8
Layer 1
10
12.073700
20
3.353800
11
12.073700
21
2.116670
0
LINE
8
Layer 1
10
12.073700
20
2.116670
11
7.218160
21
2.116670
0
LINE
8
Layer 1
10
7.218160
20
2.116670
11
7.218160
21
3.353800
0
LINE
8
Layer 1
10
16.175700
20
5.544360
11
15.764098
21
5.467621
0
LINE
8
Layer 1
10
15.764098
20
5.467621
11
15.468767
21
5.237402
0
LINE
8
Layer 1
10
15.468767
20
5.237402
11
15.294359
21
4.858356
0
LINE
8
Layer 1
10
15.294359
20
4.858356
11
15.236223
21
4.325831
0
LINE
8
Layer 1
10
15.236223
20
4.325831
11
15.468767
21
3.409609
0
LINE
8
Layer 1
10
15.468767
20
3.409609
11
15.764097
21
3.182879
0
LINE
8
Layer 1
10
15.764097
20
3.182879
11
16.175700
21
3.107302
0
LINE
8
Layer 1
10
16.175700
20
3.107302
11
16.589628
21
3.182879
0
LINE
8
Layer 1
10
16.589628
20
3.182879
11
16.882633
21
3.409609
0
LINE
8
Layer 1
10
16.882633
20
3.409609
11
17.060528
21
3.792143
0
LINE
8
Layer 1
10
17.060528
20
3.792143
11
17.119827
21
4.325831
0
LINE
8
Layer 1
10
17.119827
20
4.325831
11
17.060528
21
4.858356
0
LINE
8
Layer 1
10
17.060528
20
4.858356
11
16.882633
21
5.237402
0
LINE
8
Layer 1
10
16.882633
20
5.237402
11
16.589628
21
5.467621
0
LINE
8
Layer 1
10
16.589628
20
5.467621
11
16.175700
21
5.544360
0
LINE
8
Layer 1
10
16.175700
20
5.544360
11
16.175700
21
5.544360
0
LINE
8
Layer 1
10
18.389520
20
8.879040
11
18.389600
21
7.595400
0
LINE
8
Layer 1
10
18.389600
20
7.595400
11
17.557094
21
7.902358
0
LINE
8
Layer 1
10
17.557094
20
7.902358
11
16.794351
21
8.004677
0
LINE
8
Layer 1
10
16.794351
20
8.004677
11
16.082769
21
7.893056
0
LINE
8
Layer 1
10
16.082769
20
7.893056
11
15.547921
21
7.558193
0
LINE
8
Layer 1
10
15.547921
20
7.558193
11
15.194455
21
7.008226
0
LINE
8
Layer 1
10
15.194455
20
7.008226
11
15.027023
21
6.241993
0
LINE
8
Layer 1
10
15.027023
20
6.241993
11
15.692098
21
6.581507
0
LINE
8
Layer 1
10
15.692098
20
6.581507
11
16.473445
21
6.697779
0
LINE
8
Layer 1
10
16.473445
20
6.697779
11
17.435012
21
6.541975
0
LINE
8
Layer 1
10
17.435012
20
6.541975
11
18.189615
21
6.074562
0
LINE
8
Layer 1
10
18.189615
20
6.074562
11
18.681445
21
5.354838
0
LINE
8
Layer 1
10
18.681445
20
5.354838
11
18.845388
21
4.442102
0
LINE
8
Layer 1
10
18.845388
20
4.442102
11
18.662841
21
3.436349
0
LINE
8
Layer 1
10
18.662841
20
3.436349
11
18.115201
21
2.651512
0
LINE
8
Layer 1
10
18.115201
20
2.651512
11
17.260603
21
2.149217
0
LINE
8
Layer 1
10
17.260603
20
2.149217
11
16.157181
21
1.981786
0
LINE
8
Layer 1
10
16.157181
20
1.981786
11
14.956096
21
2.209679
0
LINE
8
Layer 1
10
14.956096
20
2.209679
11
14.059641
21
2.893357
0
LINE
8
Layer 1
10
14.059641
20
2.893357
11
13.505024
21
4.000265
0
LINE
8
Layer 1
10
13.505024
20
4.000265
11
13.320152
21
5.488547
0
LINE
8
Layer 1
10
13.320152
20
5.488547
11
13.536417
21
7.024497
0
LINE
8
Layer 1
10
13.536417
20
7.024497
11
14.185214
21
8.190707
0
LINE
8
Layer 1
10
14.185214
20
8.190707
11
15.215383
21
8.930196
0
LINE
8
Layer 1
10
15.215383
20
8.930196
11
16.566464
21
9.176692
0
LINE
8
Layer 1
10
16.566464
20
9.176692
11
17.496639
21
9.102278
0
LINE
8
Layer 1
10
17.496639
20
9.102278
11
18.389607
21
8.879036
0
LINE
8
Layer 1
10
18.389607
20
8.879036
11
18.389520
21
8.879040
0
LINE
8
Layer 1
10
12.891500
20
18.347500
11
13.452800
21
17.786200
0
LINE
8
Layer 1
10
13.452800
20
17.786200
11
-1.514350
21
2.819110
0
LINE
8
Layer 1
10
-1.514350
20
2.819110
11
-2.075620
21
3.380380
0
LINE
8
Layer 1
10
-2.075620
20
3.380380
11
12.891500
21
18.347500
 0 
ENDSEC
 0 
EOF