999
"DXF R12 Output" (www.mydxf.blogspot.com)
 0 
SECTION
 2 
HEADER
 9 
$ACADVER
 1 
AC1009
 9 
$EXTMIN
 10 
 0 
 20 
 0 
 9 
$EXTMAX
 10 
 8.5 
 20 
 11 
 0 
ENDSEC
 0 
SECTION
 2 
ENTITIES
0
LINE
8
Layer 1
10
0.625634
20
19.411500
11
5.763140
21
19.411500
0
LINE
8
Layer 1
10
5.763140
20
19.411500
11
5.763140
21
18.420600
0
LINE
8
Layer 1
10
5.763140
20
18.420600
11
3.105340
21
12.593500
0
LINE
8
Layer 1
10
3.105340
20
12.593500
11
1.392840
21
12.593500
0
LINE
8
Layer 1
10
1.392840
20
12.593500
11
3.909070
21
18.119200
0
LINE
8
Layer 1
10
3.909070
20
18.119200
11
0.625634
21
18.119200
0
LINE
8
Layer 1
10
0.625634
20
18.119200
11
0.625634
21
19.411500
0
LINE
8
Layer 1
10
9.247540
20
5.512070
11
8.811421
21
5.444711
0
LINE
8
Layer 1
10
8.811421
20
5.444711
11
8.489469
21
5.242635
0
LINE
8
Layer 1
10
8.489469
20
5.242635
11
8.290818
21
4.914975
0
LINE
8
Layer 1
10
8.290818
20
4.914975
11
8.224601
21
4.470864
0
LINE
8
Layer 1
10
8.224601
20
4.470864
11
8.290818
21
4.026753
0
LINE
8
Layer 1
10
8.290818
20
4.026753
11
8.489469
21
3.699093
0
LINE
8
Layer 1
10
8.489469
20
3.699093
11
8.811421
21
3.500442
0
LINE
8
Layer 1
10
8.811421
20
3.500442
11
9.247540
21
3.434225
0
LINE
8
Layer 1
10
9.247540
20
3.434225
11
9.679092
21
3.500442
0
LINE
8
Layer 1
10
9.679092
20
3.500442
11
9.996478
21
3.699093
0
LINE
8
Layer 1
10
9.996478
20
3.699093
11
10.191704
21
4.026753
0
LINE
8
Layer 1
10
10.191704
20
4.026753
11
10.256779
21
4.470864
0
LINE
8
Layer 1
10
10.256779
20
4.470864
11
10.191704
21
4.917258
0
LINE
8
Layer 1
10
10.191704
20
4.917258
11
9.996478
21
5.242635
0
LINE
8
Layer 1
10
9.996478
20
5.242635
11
9.679093
21
5.444711
0
LINE
8
Layer 1
10
9.679093
20
5.444711
11
9.247540
21
5.512070
0
LINE
8
Layer 1
10
9.247540
20
5.512070
11
9.247540
21
5.512070
0
LINE
8
Layer 1
10
7.964300
20
6.092040
11
7.419722
21
6.329508
0
LINE
8
Layer 1
10
7.419722
20
6.329508
11
7.028128
21
6.667443
0
LINE
8
Layer 1
10
7.028128
20
6.667443
11
6.791801
21
7.103562
0
LINE
8
Layer 1
10
6.791801
20
7.103562
11
6.713026
21
7.635582
0
LINE
8
Layer 1
10
6.713026
20
7.635582
11
6.874002
21
8.395937
0
LINE
8
Layer 1
10
6.874002
20
8.395937
11
7.356929
21
8.950792
0
LINE
8
Layer 1
10
7.356929
20
8.950792
11
8.151533
21
9.289869
0
LINE
8
Layer 1
10
8.151533
20
9.289869
11
9.247539
21
9.402894
0
LINE
8
Layer 1
10
9.247539
20
9.402894
11
10.336694
21
9.289869
0
LINE
8
Layer 1
10
10.336694
20
9.289869
11
11.129019
21
8.950792
0
LINE
8
Layer 1
10
11.129019
20
8.950792
11
11.611946
21
8.398221
0
LINE
8
Layer 1
10
11.611946
20
8.398221
11
11.772922
21
7.635582
0
LINE
8
Layer 1
10
11.772922
20
7.635582
11
11.693005
21
7.103562
0
LINE
8
Layer 1
10
11.693005
20
7.103562
11
11.453254
21
6.667443
0
LINE
8
Layer 1
10
11.453254
20
6.667443
11
11.061660
21
6.329508
0
LINE
8
Layer 1
10
11.061660
20
6.329508
11
10.517082
21
6.092040
0
LINE
8
Layer 1
10
10.517082
20
6.092040
11
11.125593
21
5.839730
0
LINE
8
Layer 1
10
11.125593
20
5.839730
11
11.562852
21
5.466403
0
LINE
8
Layer 1
10
11.562852
20
5.466403
11
11.830003
21
4.980051
0
LINE
8
Layer 1
10
11.830003
20
4.980051
11
11.919054
21
4.379533
0
LINE
8
Layer 1
10
11.919054
20
4.379533
11
11.750086
21
3.489025
0
LINE
8
Layer 1
10
11.750086
20
3.489025
11
11.243184
21
2.845123
0
LINE
8
Layer 1
10
11.243184
20
2.845123
11
10.408622
21
2.458096
0
LINE
8
Layer 1
10
10.408622
20
2.458096
11
9.247544
21
2.329087
0
LINE
8
Layer 1
10
9.247544
20
2.329087
11
8.080754
21
2.458096
0
LINE
8
Layer 1
10
8.080754
20
2.458096
11
7.238204
21
2.845123
0
LINE
8
Layer 1
10
7.238204
20
2.845123
11
6.731301
21
3.489027
0
LINE
8
Layer 1
10
6.731301
20
3.489027
11
6.562334
21
4.379533
0
LINE
8
Layer 1
10
6.562334
20
4.379533
11
6.650243
21
4.980052
0
LINE
8
Layer 1
10
6.650243
20
4.980052
11
6.913969
21
5.466403
0
LINE
8
Layer 1
10
6.913969
20
5.466403
11
7.354655
21
5.839730
0
LINE
8
Layer 1
10
7.354655
20
5.839730
11
7.964309
21
6.092040
0
LINE
8
Layer 1
10
7.964309
20
6.092040
11
7.964300
21
6.092040
0
LINE
8
Layer 1
10
8.375302
20
7.457480
11
8.599070
21
6.831843
0
LINE
8
Layer 1
10
8.599070
20
6.831843
11
9.247540
21
6.612642
0
LINE
8
Layer 1
10
9.247540
20
6.612642
11
9.882310
21
6.831843
0
LINE
8
Layer 1
10
9.882310
20
6.831843
11
10.106078
21
7.457480
0
LINE
8
Layer 1
10
10.106078
20
7.457480
11
9.882310
21
8.078550
0
LINE
8
Layer 1
10
9.882310
20
8.078550
11
9.247540
21
8.297751
0
LINE
8
Layer 1
10
9.247540
20
8.297751
11
8.599070
21
8.078550
0
LINE
8
Layer 1
10
8.599070
20
8.078550
11
8.375302
21
7.457480
0
LINE
8
Layer 1
10
8.375302
20
7.457480
11
8.375302
21
7.457480
0
LINE
8
Layer 1
10
12.658100
20
18.398500
11
13.209200
21
17.847400
0
LINE
8
Layer 1
10
13.209200
20
17.847400
11
-1.486950
21
3.151230
0
LINE
8
Layer 1
10
-1.486950
20
3.151230
11
-2.038060
21
3.702340
0
LINE
8
Layer 1
10
-2.038060
20
3.702340
11
12.658100
21
18.398500
 0 
ENDSEC
 0 
EOF