999
"DXF R12 Output" (www.mydxf.blogspot.com)
 0 
SECTION
 2 
HEADER
 9 
$ACADVER
 1 
AC1009
 9 
$EXTMIN
 10 
 0 
 20 
 0 
 9 
$EXTMAX
 10 
 8.5 
 20 
 11 
 0 
ENDSEC
 0 
SECTION
 2 
ENTITIES
0
LINE
8
Layer 1
10
3.316070
20
5.297530
11
2.871912
21
5.228929
0
LINE
8
Layer 1
10
2.871912
20
5.228929
11
2.544025
21
5.023128
0
LINE
8
Layer 1
10
2.544025
20
5.023128
11
2.341712
21
4.689428
0
LINE
8
Layer 1
10
2.341712
20
4.689428
11
2.274274
21
4.237130
0
LINE
8
Layer 1
10
2.274274
20
4.237130
11
2.341712
21
3.784832
0
LINE
8
Layer 1
10
2.341712
20
3.784832
11
2.544025
21
3.451132
0
LINE
8
Layer 1
10
2.544025
20
3.451132
11
2.871912
21
3.248819
0
LINE
8
Layer 1
10
2.871912
20
3.248819
11
3.316070
21
3.181381
0
LINE
8
Layer 1
10
3.316070
20
3.181381
11
3.755578
21
3.248819
0
LINE
8
Layer 1
10
3.755578
20
3.248819
11
4.078813
21
3.451132
0
LINE
8
Layer 1
10
4.078813
20
3.451132
11
4.277638
21
3.784832
0
LINE
8
Layer 1
10
4.277638
20
3.784832
11
4.343913
21
4.237130
0
LINE
8
Layer 1
10
4.343913
20
4.237130
11
4.277638
21
4.691753
0
LINE
8
Layer 1
10
4.277638
20
4.691753
11
4.078813
21
5.023128
0
LINE
8
Layer 1
10
4.078813
20
5.023128
11
3.755577
21
5.228929
0
LINE
8
Layer 1
10
3.755577
20
5.228929
11
3.316070
21
5.297530
0
LINE
8
Layer 1
10
3.316070
20
5.297530
11
3.316070
21
5.297530
0
LINE
8
Layer 1
10
2.009180
20
5.888190
11
1.454563
21
6.130035
0
LINE
8
Layer 1
10
1.454563
20
6.130035
11
1.055751
21
6.474200
0
LINE
8
Layer 1
10
1.055751
20
6.474200
11
0.815069
21
6.918358
0
LINE
8
Layer 1
10
0.815069
20
6.918358
11
0.734841
21
7.460185
0
LINE
8
Layer 1
10
0.734841
20
7.460185
11
0.898784
21
8.234555
0
LINE
8
Layer 1
10
0.898784
20
8.234555
11
1.390614
21
8.799635
0
LINE
8
Layer 1
10
1.390614
20
8.799635
11
2.199866
21
9.144962
0
LINE
8
Layer 1
10
2.199866
20
9.144962
11
3.316074
21
9.260071
0
LINE
8
Layer 1
10
3.316074
20
9.260071
11
4.425309
21
9.144962
0
LINE
8
Layer 1
10
4.425309
20
9.144962
11
5.232234
21
8.799635
0
LINE
8
Layer 1
10
5.232234
20
8.799635
11
5.724064
21
8.236880
0
LINE
8
Layer 1
10
5.724064
20
8.236880
11
5.888007
21
7.460185
0
LINE
8
Layer 1
10
5.888007
20
7.460185
11
5.806617
21
6.918358
0
LINE
8
Layer 1
10
5.806617
20
6.918358
11
5.562446
21
6.474200
0
LINE
8
Layer 1
10
5.562446
20
6.474200
11
5.163634
21
6.130035
0
LINE
8
Layer 1
10
5.163634
20
6.130035
11
4.609017
21
5.888190
0
LINE
8
Layer 1
10
4.609017
20
5.888190
11
5.228746
21
5.631229
0
LINE
8
Layer 1
10
5.228746
20
5.631229
11
5.674067
21
5.251020
0
LINE
8
Layer 1
10
5.674067
20
5.251020
11
5.946143
21
4.755701
0
LINE
8
Layer 1
10
5.946143
20
4.755701
11
6.036835
21
4.144110
0
LINE
8
Layer 1
10
6.036835
20
4.144110
11
5.864753
21
3.237192
0
LINE
8
Layer 1
10
5.864753
20
3.237192
11
5.348506
21
2.581420
0
LINE
8
Layer 1
10
5.348506
20
2.581420
11
4.498559
21
2.187258
0
LINE
8
Layer 1
10
4.498559
20
2.187258
11
3.316076
21
2.055871
0
LINE
8
Layer 1
10
3.316076
20
2.055871
11
2.127781
21
2.187258
0
LINE
8
Layer 1
10
2.127781
20
2.187258
11
1.269696
21
2.581420
0
LINE
8
Layer 1
10
1.269696
20
2.581420
11
0.753449
21
3.237192
0
LINE
8
Layer 1
10
0.753449
20
3.237192
11
0.581367
21
4.144110
0
LINE
8
Layer 1
10
0.581367
20
4.144110
11
0.670896
21
4.755700
0
LINE
8
Layer 1
10
0.670896
20
4.755700
11
0.939484
21
5.251020
0
LINE
8
Layer 1
10
0.939484
20
5.251020
11
1.388293
21
5.631229
0
LINE
8
Layer 1
10
1.388293
20
5.631229
11
2.009184
21
5.888190
0
LINE
8
Layer 1
10
2.009184
20
5.888190
11
2.009180
21
5.888190
0
LINE
8
Layer 1
10
2.427759
20
7.278800
11
2.655652
21
6.641630
0
LINE
8
Layer 1
10
2.655652
20
6.641630
11
3.316076
21
6.418388
0
LINE
8
Layer 1
10
3.316076
20
6.418388
11
3.962548
21
6.641630
0
LINE
8
Layer 1
10
3.962548
20
6.641630
11
4.190441
21
7.278800
0
LINE
8
Layer 1
10
4.190441
20
7.278800
11
3.962548
21
7.911319
0
LINE
8
Layer 1
10
3.962548
20
7.911319
11
3.316076
21
8.134561
0
LINE
8
Layer 1
10
3.316076
20
8.134561
11
2.655652
21
7.911319
0
LINE
8
Layer 1
10
2.655652
20
7.911319
11
2.427759
21
7.278800
0
LINE
8
Layer 1
10
2.427759
20
7.278800
11
2.427759
21
7.278800
 0 
ENDSEC
 0 
EOF