999
"DXF R12 Output" (www.mydxf.blogspot.com)
 0 
SECTION
 2 
HEADER
 9 
$ACADVER
 1 
AC1009
 9 
$EXTMIN
 10 
 0 
 20 
 0 
 9 
$EXTMAX
 10 
 8.5 
 20 
 11 
 0 
ENDSEC
 0 
SECTION
 2 
ENTITIES
0
LINE
8
Layer 1
10
0.953429
20
2.344230
11
0.953429
21
3.627870
0
LINE
8
Layer 1
10
0.953429
20
3.627870
11
1.771983
21
3.325563
0
LINE
8
Layer 1
10
1.771983
20
3.325563
11
2.544028
21
3.227895
0
LINE
8
Layer 1
10
2.544028
20
3.227895
11
3.255610
21
3.338353
0
LINE
8
Layer 1
10
3.255610
20
3.338353
11
3.790458
21
3.669728
0
LINE
8
Layer 1
10
3.790458
20
3.669728
11
4.145087
21
4.223182
0
LINE
8
Layer 1
10
4.145087
20
4.223182
11
4.316007
21
4.990578
0
LINE
8
Layer 1
10
4.316007
20
4.990578
11
3.641630
21
4.641763
0
LINE
8
Layer 1
10
3.641630
20
4.641763
11
2.864934
21
4.525491
0
LINE
8
Layer 1
10
2.864934
20
4.525491
11
1.902204
21
4.680132
0
LINE
8
Layer 1
10
1.902204
20
4.680132
11
1.144114
21
5.144057
0
LINE
8
Layer 1
10
1.144114
20
5.144057
11
0.655772
21
5.864943
0
LINE
8
Layer 1
10
0.655772
20
5.864943
11
0.492992
21
6.781167
0
LINE
8
Layer 1
10
0.492992
20
6.781167
11
0.674376
21
7.790407
0
LINE
8
Layer 1
10
0.674376
20
7.790407
11
1.218528
21
8.576407
0
LINE
8
Layer 1
10
1.218528
20
8.576407
11
2.071964
21
9.082189
0
LINE
8
Layer 1
10
2.071964
20
9.082189
11
3.171898
21
9.250784
0
LINE
8
Layer 1
10
3.171898
20
9.250784
11
4.376475
21
9.021728
0
LINE
8
Layer 1
10
4.376475
20
9.021728
11
5.274088
21
8.334562
0
LINE
8
Layer 1
10
5.274088
20
8.334562
11
5.832193
21
7.228816
0
LINE
8
Layer 1
10
5.832193
20
7.228816
11
6.018228
21
5.744022
0
LINE
8
Layer 1
10
6.018228
20
5.744022
11
5.800800
21
4.206909
0
LINE
8
Layer 1
10
5.800800
20
4.206909
11
5.148515
21
3.037212
0
LINE
8
Layer 1
10
5.148515
20
3.037212
11
4.117183
21
2.301211
0
LINE
8
Layer 1
10
4.117183
20
2.301211
11
2.762615
21
2.055878
0
LINE
8
Layer 1
10
2.762615
20
2.055878
11
1.827790
21
2.130292
0
LINE
8
Layer 1
10
1.827790
20
2.130292
11
0.953426
21
2.344232
0
LINE
8
Layer 1
10
0.953426
20
2.344232
11
0.953429
21
2.344230
0
LINE
8
Layer 1
10
3.162590
20
5.688210
11
3.574192
21
5.763787
0
LINE
8
Layer 1
10
3.574192
20
5.763787
11
3.869523
21
5.990517
0
LINE
8
Layer 1
10
3.869523
20
5.990517
11
4.047418
21
6.373051
0
LINE
8
Layer 1
10
4.047418
20
6.373051
11
4.106717
21
6.906739
0
LINE
8
Layer 1
10
4.106717
20
6.906739
11
4.047418
21
7.436938
0
LINE
8
Layer 1
10
4.047418
20
7.436938
11
3.869523
21
7.818310
0
LINE
8
Layer 1
10
3.869523
20
7.818310
11
3.574193
21
8.048528
0
LINE
8
Layer 1
10
3.574193
20
8.048528
11
3.162590
21
8.125268
0
LINE
8
Layer 1
10
3.162590
20
8.125268
11
2.750988
21
8.048528
0
LINE
8
Layer 1
10
2.750988
20
8.048528
11
2.455657
21
7.818310
0
LINE
8
Layer 1
10
2.455657
20
7.818310
11
2.277761
21
7.436938
0
LINE
8
Layer 1
10
2.277761
20
7.436938
11
2.218462
21
6.906739
0
LINE
8
Layer 1
10
2.218462
20
6.906739
11
2.277761
21
6.373051
0
LINE
8
Layer 1
10
2.277761
20
6.373051
11
2.455657
21
5.990517
0
LINE
8
Layer 1
10
2.455657
20
5.990517
11
2.750987
21
5.763787
0
LINE
8
Layer 1
10
2.750987
20
5.763787
11
3.162590
21
5.688210
0
LINE
8
Layer 1
10
3.162590
20
5.688210
11
3.162590
21
5.688210
 0 
ENDSEC
 0 
EOF